<svg width="24" height="24" viewBox="0 0 24 24" fill="none" xmlns="http://www.w3.org/2000/svg">
<path fill-rule="evenodd" clip-rule="evenodd" d="M21.9667 16.1618C21.9647 16.5586 21.8833 16.9511 21.7274 17.3167C21.5715 17.6822 21.3442 18.0136 21.0584 18.2917C20.7726 18.5697 20.4339 18.7888 20.0622 18.9366C19.6904 19.0844 19.2928 19.1578 18.8923 19.1526H12.8435V20.1861C12.8422 20.2945 12.8193 20.4016 12.7762 20.5011C12.7331 20.6007 12.6706 20.6909 12.5922 20.7665C12.5138 20.8421 12.4212 20.9016 12.3196 20.9417C12.218 20.9817 12.1094 21.0015 12 20.9999C11.8913 21.0012 11.7833 20.9811 11.6824 20.9409C11.5816 20.9006 11.4898 20.8408 11.4124 20.7652C11.335 20.6895 11.2734 20.5993 11.2314 20.4999C11.1894 20.4005 11.1677 20.2939 11.1676 20.1861V19.1526H5.0966C4.28761 19.1626 3.50759 18.8547 2.92725 18.2962C2.3469 17.7378 2.01344 16.9742 2 16.1728V7.838C2.01344 7.03657 2.3469 6.27304 2.92725 5.71457C3.50759 5.1561 4.28761 4.84822 5.0966 4.85822H11.1676V3.81368C11.1696 3.5966 11.2583 3.38912 11.4143 3.23665C11.5703 3.08418 11.7809 2.99913 12 3.00001C12.2203 2.99881 12.4322 3.08335 12.59 3.23558C12.7478 3.38781 12.8389 3.59551 12.8435 3.81368V4.85822H18.8923C19.703 4.84586 20.4857 5.15268 21.0683 5.71135C21.6509 6.27001 21.986 7.03482 22 7.838L21.9667 16.1618ZM8.79244 11.4006L7.13873 9.80626C7.05829 9.72534 6.96241 9.66114 6.85666 9.61728C6.75091 9.57341 6.63734 9.55084 6.52269 9.55084C6.40805 9.55084 6.29461 9.57341 6.18886 9.61728C6.08311 9.66114 5.98724 9.72534 5.90679 9.80626C5.82521 9.88375 5.76024 9.97683 5.71589 10.0798C5.67155 10.1828 5.64869 10.2936 5.64869 10.4056C5.64869 10.5175 5.67155 10.6284 5.71589 10.7313C5.76024 10.8343 5.82521 10.9273 5.90679 11.0048L6.9389 12.0054L5.90679 13.006C5.82521 13.0835 5.76024 13.1765 5.71589 13.2795C5.67155 13.3824 5.64869 13.4933 5.64869 13.6052C5.64869 13.7172 5.67155 13.828 5.71589 13.931C5.76024 14.034 5.82521 14.127 5.90679 14.2045C6.07017 14.3664 6.29167 14.4573 6.52269 14.4573C6.75372 14.4573 6.97535 14.3664 7.13873 14.2045L8.79244 12.5992C8.87402 12.5217 8.93899 12.4286 8.98334 12.3257C9.02768 12.2227 9.05054 12.1119 9.05054 11.9999C9.05054 11.8879 9.02768 11.7771 8.98334 11.6741C8.93899 11.5711 8.87402 11.4781 8.79244 11.4006ZM12.8435 5.95778H11.1676V18.053H12.8435V5.95778ZM18.0045 10.9937C18.0861 10.9151 18.1509 10.8211 18.1952 10.7172C18.2395 10.6134 18.2624 10.5018 18.2624 10.3891C18.2624 10.2763 18.2395 10.1646 18.1952 10.0608C18.1509 9.95688 18.0861 9.86285 18.0045 9.78425C17.8373 9.62539 17.6145 9.53674 17.3829 9.53674C17.1512 9.53674 16.9286 9.62539 16.7614 9.78425L15.0966 11.4006C15.015 11.4792 14.95 11.5732 14.9057 11.6771C14.8614 11.781 14.8386 11.8926 14.8386 12.0054C14.8386 12.1182 14.8614 12.2298 14.9057 12.3337C14.95 12.4376 15.015 12.5316 15.0966 12.6102L16.7614 14.2155C16.843 14.2963 16.9399 14.3602 17.0466 14.4036C17.1533 14.447 17.2676 14.469 17.3829 14.4684C17.615 14.4655 17.8373 14.3751 18.0045 14.2155C18.0861 14.1369 18.1509 14.0429 18.1952 13.939C18.2395 13.8352 18.2624 13.7235 18.2624 13.6107C18.2624 13.498 18.2395 13.3864 18.1952 13.2825C18.1509 13.1787 18.0861 13.0846 18.0045 13.006L16.9611 12.0054L18.0045 10.9937Z" fill="#333333"/>
</svg>
