<svg width="24" height="24" viewBox="0 0 24 24" fill="none" xmlns="http://www.w3.org/2000/svg">
<path fill-rule="evenodd" clip-rule="evenodd" d="M19.5 9.84229V9.84239C19.5001 10.7764 19.4948 11.2408 19.1497 12.0396C19.1576 12.0213 19.1534 12.0276 19.1293 12.0639L19.1292 12.064C19.0898 12.1235 18.997 12.2633 18.8165 12.5071C18.5676 12.8433 18.2279 13.2784 17.822 13.784C17.0119 14.7931 15.9706 16.0427 14.9374 17.2659C13.9056 18.4873 12.8881 19.6751 12.128 20.5579L12.0006 20.7058L11.8717 20.556C11.1111 19.6716 10.093 18.4821 9.06075 17.2594C8.02714 16.0351 6.98543 14.7846 6.17539 13.7761C5.76947 13.2708 5.42979 12.8362 5.18099 12.5007C5.00277 12.2604 4.91037 12.1219 4.87043 12.0621C4.84465 12.0234 4.84074 12.0176 4.84971 12.0383C4.50669 11.2483 4.5 10.7669 4.5 9.80799C4.5 5.80223 7.8272 2.5 12 2.5C16.1728 2.5 19.5 5.80223 19.5 9.80799V9.84229ZM12 23C12 23 12.385 22.5572 12.9915 21.8537C15.158 19.341 20.1516 13.5023 20.5262 12.6357C21.0001 11.5393 21.0001 10.8141 21 9.84229V9.80799C21 4.94347 16.9706 1 12 1C7.02944 1 3 4.94347 3 9.80799C3 10.7971 3 11.5444 3.47382 12.6357C3.84407 13.4884 8.84197 19.3372 11.0091 21.8532C11.6153 22.557 12 23 12 23ZM13.5 9C13.5 9.82843 12.8284 10.5 12 10.5C11.1716 10.5 10.5 9.82843 10.5 9C10.5 8.17157 11.1716 7.5 12 7.5C12.8284 7.5 13.5 8.17157 13.5 9ZM12 12C13.6569 12 15 10.6569 15 9C15 7.34315 13.6569 6 12 6C10.3431 6 9 7.34315 9 9C9 10.6569 10.3431 12 12 12Z" fill="#333333"/>
</svg>
