<svg width="24" height="24" viewBox="0 0 24 24" fill="none" xmlns="http://www.w3.org/2000/svg">
<path d="M12 1.5C11.1716 1.5 10.5 2.17157 10.5 3C10.5 3.3156 10.5975 3.60843 10.7639 3.85004H13.2361C13.4025 3.60843 13.5 3.3156 13.5 3C13.5 2.17157 12.8284 1.5 12 1.5Z" fill="#A50034"/>
<rect x="2" y="18" width="20" height="1.5" rx="0.75" fill="#A50034"/>
<path d="M13.375 20.6875H10.5C10.5149 21.091 10.6572 21.4278 10.9269 21.6981C11.1967 21.9683 11.5336 22.1032 11.9375 22.1027C12.3414 22.1022 12.6783 21.9674 12.9481 21.6981C13.2178 21.4288 13.3601 21.0919 13.375 20.6875Z" fill="#A50034"/>
<path d="M5.5 19V10C5.5 7.83333 6.8 3.5 12 3.5C17.2 3.5 18.5 7.83333 18.5 10V19" stroke="#A50034" stroke-width="1.5"/>
</svg>
