<svg width="24" height="24" viewBox="0 0 24 24" fill="none" xmlns="http://www.w3.org/2000/svg">
<path fill-rule="evenodd" clip-rule="evenodd" d="M3.99902 7.47781C3.99902 5.923 5.51012 4.47461 7.62447 4.47461C9.73882 4.47461 11.2499 5.923 11.2499 7.47781H11.25H12.7499H12.75C12.75 5.923 14.2611 4.47461 16.3754 4.47461C18.4898 4.47461 20.0009 5.923 20.0009 7.47781H21.5009C21.5009 4.88694 19.0941 2.97461 16.3754 2.97461C14.5796 2.97461 12.9198 3.80906 12 5.12233C11.0801 3.80906 9.42032 2.97461 7.62447 2.97461C4.90583 2.97461 2.49902 4.88694 2.49902 7.47781H3.99902ZM11.979 18.9037L19.9578 10.9188L21.0188 11.9791L12.5095 20.4948L11.979 21.0258L11.4484 20.4948L2.9391 11.9791L4.00016 10.9188L11.979 18.9037Z" fill="#333333"/>
</svg>
