<svg width="24" height="24" viewBox="0 0 24 24" fill="none" xmlns="http://www.w3.org/2000/svg">
<path fill-rule="evenodd" clip-rule="evenodd" d="M3.0332 2.22119H2.2332V3.82119H3.0332H4.34842L8.03516 16.2487L8.20499 16.8212H8.80213H19.0066H19.4802L19.708 16.406L20.0692 15.7476L20.0693 15.7477L20.0722 15.7422C21.9459 12.2641 23.2149 8.48423 23.8237 4.56877L23.9672 3.64585H23.0332H12.0372H11.2372V4.44585V6.75552V7.55552H12.8372V6.75552V5.24585H22.0859C21.458 8.6521 20.3039 11.9378 18.665 14.9808L18.5331 15.2212H9.39926L5.71252 2.79366L5.54269 2.22119H4.94555H3.0332ZM1.9834 15.522V13.6978H0.0332031V12.1978H1.9834V10.022H3.4834V12.1978H5.5332V13.6978H3.4834V15.522H1.9834ZM17.6952 21.7791C18.4573 21.7791 19.0751 21.1608 19.0751 20.3982C19.0751 19.6355 18.4573 19.0173 17.6952 19.0173C16.9332 19.0173 16.3154 19.6355 16.3154 20.3982C16.3154 21.1608 16.9332 21.7791 17.6952 21.7791ZM11.7928 20.3982C11.7928 21.1608 11.1751 21.7791 10.413 21.7791C9.65097 21.7791 9.0332 21.1608 9.0332 20.3982C9.0332 19.6355 9.65097 19.0173 10.413 19.0173C11.1751 19.0173 11.7928 19.6355 11.7928 20.3982Z" fill="#A50034"/>
</svg>
