<svg width="24" height="24" viewBox="0 0 24 24" fill="none" xmlns="http://www.w3.org/2000/svg">
<path fill-rule="evenodd" clip-rule="evenodd" d="M21.9656 16.1636C21.9628 16.5606 21.881 16.9531 21.7249 17.3186C21.5688 17.6841 21.3415 18.0155 21.0559 18.2935C20.7704 18.5716 20.4323 18.791 20.061 18.9391C19.6898 19.0871 19.2927 19.1609 18.8926 19.1563H12.8378V20.199C12.8299 20.4141 12.7383 20.6177 12.5821 20.7671C12.426 20.9165 12.2175 21 12.0006 21C11.7836 21 11.5751 20.9165 11.4189 20.7671C11.2628 20.6177 11.1711 20.4141 11.1632 20.199V19.1563H5.09402C4.28495 19.1663 3.5049 18.8576 2.92491 18.2978C2.34491 17.7381 2.01228 16.973 2 16.1703V7.83087C2.01199 7.02788 2.34444 6.2624 2.92443 5.70222C3.50443 5.14205 4.28465 4.83293 5.09402 4.84263H11.1632V3.80106C11.1711 3.58596 11.2628 3.38226 11.4189 3.23286C11.5751 3.08346 11.7836 3 12.0006 3C12.2175 3 12.426 3.08346 12.5821 3.23286C12.7383 3.38226 12.8299 3.58596 12.8378 3.80106V4.84263H18.8926C19.7036 4.83115 20.4861 5.13912 21.0685 5.69907C21.651 6.25901 21.986 7.02524 22 7.8298L21.9656 16.1636ZM11.1632 6.40725H5.13947C4.75891 6.40133 4.39147 6.54486 4.11709 6.80657C3.84271 7.06828 3.68368 7.42695 3.67465 7.80446V16.1636C3.68368 16.5411 3.84271 16.8999 4.11709 17.1616C4.39147 17.4233 4.75891 17.5668 5.13947 17.5609H11.1632V6.40725ZM20.2909 7.80446C20.2819 7.42695 20.1229 7.06828 19.8485 6.80657C19.5741 6.54486 19.2066 6.40133 18.8261 6.40725H12.8334V17.5609H18.8261C19.2066 17.5668 19.5741 17.4233 19.8485 17.1616C20.1229 16.8999 20.2819 16.5411 20.2909 16.1636V7.80446ZM17.9993 14.2181C17.8333 14.3798 17.6099 14.4704 17.3773 14.4704C17.1446 14.4704 16.9213 14.3798 16.7553 14.2181L15.0907 12.605C15.0089 12.5264 14.9439 12.4323 14.8995 12.3283C14.8551 12.2243 14.8323 12.1124 14.8323 11.9995C14.8323 11.8865 14.8551 11.7747 14.8995 11.6706C14.9439 11.5666 15.0089 11.4725 15.0907 11.3939L16.7553 9.78197C16.9213 9.62025 17.1446 9.52963 17.3773 9.52963C17.6099 9.52963 17.8333 9.62025 17.9993 9.78197C18.0813 9.86044 18.1466 9.95446 18.1912 10.0585C18.2358 10.1626 18.2587 10.2745 18.2587 10.3875C18.2587 10.5006 18.2358 10.6124 18.1912 10.7165C18.1466 10.8205 18.0813 10.9146 17.9993 10.9931L16.9628 12.0017L17.9993 13.0103C18.0808 13.0887 18.1456 13.1825 18.1899 13.2863C18.2342 13.39 18.257 13.5015 18.257 13.6141C18.257 13.7268 18.2342 13.8383 18.1899 13.942C18.1456 14.0458 18.0808 14.1397 17.9993 14.2181ZM5.90303 9.79629C6.06873 9.63654 6.29067 9.54717 6.52171 9.54717C6.75276 9.54717 6.97469 9.63654 7.1404 9.79629L8.7906 11.3994C8.87168 11.4775 8.9361 11.5709 8.98012 11.6742C9.02413 11.7775 9.04683 11.8884 9.04683 12.0005C9.04683 12.1127 9.02413 12.2237 8.98012 12.3269C8.9361 12.4302 8.87168 12.5236 8.7906 12.6017L7.1404 14.2049C6.97469 14.3646 6.75276 14.454 6.52171 14.454C6.29067 14.454 6.06873 14.3646 5.90303 14.2049C5.82195 14.1268 5.75746 14.0333 5.71344 13.9301C5.66943 13.8268 5.64679 13.7158 5.64679 13.6037C5.64679 13.4915 5.66943 13.3806 5.71344 13.2773C5.75746 13.1741 5.82195 13.0806 5.90303 13.0025L6.93394 12.0005L5.90303 10.9986C5.82227 10.9204 5.75812 10.8269 5.71439 10.7236C5.67067 10.6204 5.64821 10.5095 5.64842 10.3975C5.64863 10.2856 5.67151 10.1747 5.71561 10.0716C5.75972 9.96853 5.82415 9.8753 5.9052 9.79736L5.90303 9.79629Z" fill="#333333"/>
</svg>
