<svg xmlns="http://www.w3.org/2000/svg" width="48px" height="48px">
  <g transform="matrix(1 0 0 1 -164 -70 )">
    <path d="M 0 24  C 0 10.7  10.7 0  24 0  C 37.3 0  48 10.7  48 24  C 48 37.3  37.3 48  24 48  C 10.7 48  0 37.3  0 24  Z M 44.6 24  C 44.6 12.6  35.4 3.4  24 3.4  C 12.6 3.4  3.4 12.6  3.4 24  C 3.4 35.4  12.6 44.6  24 44.6  C 35.4 44.6  44.6 35.4  44.6 24  Z M 19 32  L 19 16  C 19 15.8  19 15.6  19.3 15.5  C 19.5 15.1  20.1 14.9  20.6 15.2  C 21.5 15.7  31.9 22.8  32.6 23.2  C 32.7 23.2  32.8 23.4  32.9 23.5  C 33.2 24  33.1 24.6  32.6 24.9  C 31.6 25.5  21.2 32.5  20.6 32.8  C 20.4 33  20.2 33  20 33  C 19.4 33  19 32.5  19 32  Z " fill-rule="nonzero" fill="#ffffff" stroke="none" transform="matrix(1 0 0 1 164 70 )" />
  </g>
</svg>