<?xml version="1.0" encoding="utf-8"?>
<!-- Generator: Adobe Illustrator 25.0.0, SVG Export Plug-In . SVG Version: 6.00 Build 0)  -->
<svg version="1.1" id="레이어_1" xmlns="http://www.w3.org/2000/svg" xmlns:xlink="http://www.w3.org/1999/xlink" x="0px"
	 y="0px" width="40px" height="40px" viewBox="0 0 40 40" style="enable-background:new 0 0 40 40;" xml:space="preserve">
<style type="text/css">
	.st0{fill-rule:evenodd;clip-rule:evenodd;fill:#333333;}
</style>
<path class="st0" d="M16.3,14.8l-3-3c0,0-0.1,0-0.1-0.1h0.6c0.6,0,1.1-0.5,1.1-1.1c0-0.6-0.5-1.1-1.1-1.1h-3.3
	c-0.6,0-1.1,0.5-1.1,1.1V14c0,0.6,0.5,1.1,1.1,1.1c0.6,0,1.1-0.5,1.1-1.1l0-0.7c0,0.1,0.1,0.1,0.1,0.2l3,3c0.4,0.4,1.1,0.4,1.6,0
	C16.7,15.9,16.7,15.2,16.3,14.8z M11.7,12l0-0.2h0.2c0,0-0.1,0-0.1,0.1C11.7,11.9,11.7,11.9,11.7,12z"/>
<path class="st0" d="M30.6,29.6v-3.3c0-0.6-0.5-1.1-1.1-1.1c-0.6,0-1.1,0.5-1.1,1.1l0,0.7c0,0,0-0.1,0-0.1l-3-3
	c-0.4-0.4-1.1-0.4-1.6,0c-0.4,0.4-0.4,1.1,0,1.6l3,3h-0.6c-0.6,0-1.1,0.5-1.1,1.1c0,0.6,0.5,1.1,1.1,1.1h3.3
	C30.1,30.6,30.6,30.1,30.6,29.6z"/>
<path class="st0" d="M16.2,25.6c0.4-0.4,0.4-1.1,0-1.6c-0.4-0.4-1.1-0.4-1.6,0l-3,3v-0.6c0-0.6-0.5-1.1-1.1-1.1
	c-0.6,0-1.1,0.5-1.1,1.1v3.3c0,0.6,0.5,1.1,1.1,1.1h3.3c0.6,0,1.1-0.5,1.1-1.1c0-0.6-0.5-1.1-1.1-1.1l-0.7,0c0,0,0.1,0,0.1,0
	L16.2,25.6z"/>
<path class="st0" d="M29.5,9.6h-3.3c-0.6,0-1.1,0.5-1.1,1.1c0,0.6,0.5,1.1,1.1,1.1l0.7,0c0,0-0.1,0-0.1,0l-3,3
	c-0.4,0.4-0.4,1.1,0,1.6c0.4,0.4,1.1,0.4,1.6,0l3-3V14c0,0.6,0.5,1.1,1.1,1.1c0.6,0,1.1-0.5,1.1-1.1v-3.3
	C30.6,10.1,30.1,9.6,29.5,9.6z"/>
</svg>
