<?xml version="1.0" encoding="utf-8"?>
<!-- Generator: Adobe Illustrator 26.4.1, SVG Export Plug-In . SVG Version: 6.00 Build 0)  -->
<svg version="1.1" id="레이어_1" xmlns="http://www.w3.org/2000/svg" xmlns:xlink="http://www.w3.org/1999/xlink" x="0px"
	 y="0px" viewBox="0 0 38 38" style="enable-background:new 0 0 38 38;" xml:space="preserve">
<style type="text/css">
	.st0{fill:#333333;}
</style>
<g id="_x33_D">
	<path class="st0" d="M27.9,15.5c5.6-12.7-7.2-7.7-11.4-5.9C33.2-1,35,11.8,32.2,18v-4.3L27.9,15.5z"/>
	<path class="st0" d="M22.9,18.6l7.8-2.5v6.8L29.1,22C21.4,32,12.9,33.4,8.8,32c-6.4-2.4-4-8.1-1.7-11.4c-2.8,6.6,0.2,7.9,1.7,8.4
		c5.4,1.7,12.5-5.4,15.9-9.3L22.9,18.6z"/>
	<path class="st0" d="M10.4,15c0.4,0.2,0.8,0.4,1,0.7c0.3,0.3,0.4,0.7,0.4,1.2c0,0.6-0.1,1-0.3,1.4s-0.5,0.7-0.9,1s-0.8,0.5-1.4,0.6
		c-0.5,0.1-1.1,0.2-1.7,0.2c-0.7,0-1.3-0.1-1.9-0.3c-0.5-0.2-1-0.5-1.3-0.8l1-1.1c0.2,0.2,0.6,0.4,1,0.6c0.4,0.1,0.8,0.2,1.3,0.2
		c0.3,0,0.6,0,0.8-0.1c0.3-0.1,0.5-0.2,0.7-0.3c0.2-0.1,0.3-0.3,0.5-0.5c0.1-0.2,0.2-0.4,0.2-0.7c0-0.4-0.2-0.7-0.5-1
		C9,16,8.5,15.9,7.8,15.9c-0.1,0-0.3,0-0.4,0s-0.3,0-0.4,0l0.3-1.5h0.6c0.2,0,0.5,0,0.7,0c0.3,0,0.5-0.1,0.8-0.2
		c0.2-0.1,0.4-0.2,0.6-0.4c0.2-0.2,0.3-0.4,0.3-0.7s-0.1-0.6-0.4-0.7c-0.3-0.2-0.6-0.2-1-0.2s-0.8,0.1-1.2,0.2
		c-0.3,0.1-0.6,0.2-0.9,0.4l-0.6-1.2C6.6,11.4,7,11.2,7.5,11c0.5-0.2,1.1-0.3,1.8-0.3c0.4,0,0.8,0,1.2,0.1s0.7,0.2,0.9,0.4
		c0.3,0.2,0.5,0.4,0.6,0.7c0.2,0.3,0.2,0.6,0.2,0.9c0,0.3-0.1,0.6-0.2,0.8c-0.1,0.3-0.3,0.5-0.5,0.7s-0.4,0.3-0.6,0.5
		C10.9,14.8,10.6,14.9,10.4,15z"/>
	<path class="st0" d="M17.3,10.7c0.7,0,1.3,0.1,1.8,0.3s0.9,0.4,1.3,0.7s0.6,0.7,0.8,1.1c0.2,0.4,0.3,0.9,0.3,1.5
		c0,1-0.2,1.8-0.5,2.5c-0.3,0.7-0.7,1.3-1.2,1.8s-1.2,0.8-1.9,1c-0.8,0.2-1.6,0.3-2.5,0.3h-2.8l2-9.3h2.7V10.7z M15.6,18.5
		c0.6,0,1.1-0.1,1.6-0.3c0.5-0.2,0.9-0.4,1.2-0.8c0.3-0.3,0.6-0.8,0.8-1.3c0.2-0.5,0.3-1.1,0.3-1.7c0-0.7-0.2-1.3-0.6-1.7
		s-1-0.6-1.8-0.6h-1l-1.3,6.4C14.8,18.5,15.6,18.5,15.6,18.5z"/>
</g>
</svg>
