<?xml version="1.0" encoding="utf-8"?>
<!-- Generator: Adobe Illustrator 26.4.1, SVG Export Plug-In . SVG Version: 6.00 Build 0)  -->
<svg version="1.1" id="레이어_1" xmlns="http://www.w3.org/2000/svg" xmlns:xlink="http://www.w3.org/1999/xlink" x="0px"
	 y="0px" viewBox="0 0 38 38" style="enable-background:new 0 0 38 38;" xml:space="preserve">
<style type="text/css">
	.st0{fill-rule:evenodd;clip-rule:evenodd;fill:#A50034;}
	.st1{fill:#A50034;}
</style>
<g id="VR">
	<path class="st0" d="M6,18.6l1.1-1.1c0.3-0.3,0.3-0.8,0-1.1C6.8,16,6.3,16,6,16.3l-1.7,1.7c-0.3,0.3-0.3,0.8,0,1.1L6,21
		c0.3,0.3,0.8,0.3,1.1,0c0.3-0.3,0.3-0.8,0-1.1L6,18.6z"/>
	<path class="st0" d="M32,18.7l-1.1,1.1c-0.3,0.3-0.3,0.8,0,1.1s0.8,0.3,1.1,0l1.7-1.7c0.3-0.3,0.3-0.8,0-1.1L32,16.3
		c-0.3-0.3-0.8-0.3-1.1,0s-0.3,0.8,0,1.1L32,18.7z"/>
	<path class="st0" d="M20.1,6l1.1,1.1c0.3,0.3,0.8,0.3,1.1,0c0.3-0.3,0.3-0.8,0-1.1l-1.7-1.7c-0.3-0.3-0.8-0.3-1.1,0L17.8,6
		c-0.3,0.3-0.3,0.8,0,1.1c0.3,0.3,0.8,0.3,1.1,0L20.1,6z"/>
	<path class="st0" d="M20.1,32l-1.1-1.1c-0.3-0.3-0.8-0.3-1.1,0s-0.3,0.8,0,1.1l1.7,1.7c0.3,0.3,0.8,0.3,1.1,0l1.7-1.7
		c0.3-0.3,0.3-0.8,0-1.1c-0.3-0.3-0.8-0.3-1.1,0L20.1,32z"/>
	<path class="st1" d="M13.3,15.1h-1.6l2.6,7.8h1.9l2.7-7.8h-1.4l-2.2,6.6L13.3,15.1z"/>
	<path class="st1" d="M25.9,17.4L25.9,17.4c0-1.6-1.2-2.3-3-2.3h-2.7v7.8h1.5v-3.1h0.9l2.1,3.1h1.6L24,19.5
		C25.1,19.3,25.9,18.7,25.9,17.4z M23,18.7h-1.2v-2.5H23c0.9,0,1.6,0.3,1.6,1.2v0.1C24.4,18.3,23.9,18.7,23,18.7z"/>
</g>
</svg>
