<?xml version="1.0" encoding="utf-8"?>
<!-- Generator: Adobe Illustrator 26.4.1, SVG Export Plug-In . SVG Version: 6.00 Build 0)  -->
<svg version="1.1" id="레이어_1" xmlns="http://www.w3.org/2000/svg" xmlns:xlink="http://www.w3.org/1999/xlink" x="0px"
	 y="0px" viewBox="0 0 38 38" style="enable-background:new 0 0 38 38;" xml:space="preserve">
<style type="text/css">
	.st0{fill:#333333;}
</style>
<g id="AR">
	<polygon class="st0" points="19,5.7 22.1,7.7 22.9,6.5 19,4 15.1,6.5 15.9,7.6 	"/>
	<polygon class="st0" points="8.6,10.3 7.8,9.2 4,11.6 4,16.4 5.4,16.4 5.4,13.2 7.8,14.7 8.6,13.6 6,11.9 	"/>
	<polygon class="st0" points="5.4,22.5 4,22.5 4,27.3 7.8,29.7 8.6,28.5 5.4,26.6 	"/>
	<polygon class="st0" points="19.7,31.9 19.7,28.7 18.3,28.7 18.3,31.9 15.9,30.4 15.1,31.5 19,34 22.9,31.5 22.1,30.4 	"/>
	<polygon class="st0" points="32.6,26.6 29.4,28.6 30.2,29.8 34,27.3 34,22.6 32.6,22.6 	"/>
	<polygon class="st0" points="30.2,9.2 29.4,10.4 32,12 29.4,13.6 30.2,14.8 32.6,13.3 32.6,16.4 34,16.4 34,11.6 	"/>
	<path class="st0" d="M17.4,22.6H19l-2.7-7.9h-2l-2.8,7.9H13l0.6-2h3.2L17.4,22.6z M14,19.6l1.2-3.6l1.2,3.6H14z"/>
	<path class="st0" d="M26,17L26,17c0-1.7-1.3-2.4-3.1-2.4h-2.8v7.9h1.5v-3.2h0.9l2.1,3.2h1.7L24,19.1C25.2,18.9,26,18.3,26,17z
		 M23,18.4h-1.3v-2.5H23c0.9,0,1.6,0.3,1.6,1.2v0.1C24.5,17.9,24,18.4,23,18.4z"/>
</g>
</svg>
