<svg xmlns="http://www.w3.org/2000/svg" width="60" height="60" viewBox="0 0 60 60">
  <metadata><?xpacket begin="﻿" id="W5M0MpCehiHzreSzNTczkc9d"?>
<x:xmpmeta xmlns:x="adobe:ns:meta/" x:xmptk="Adobe XMP Core 5.6-c138 79.159824, 2016/09/14-01:09:01        ">
   <rdf:RDF xmlns:rdf="http://www.w3.org/1999/02/22-rdf-syntax-ns#">
      <rdf:Description rdf:about=""/>
   </rdf:RDF>
</x:xmpmeta>
                                                                                                    
                                                                                                    
                                                                                                    
                                                                                                    
                                                                                                    
                                                                                                    
                                                                                                    
                                                                                                    
                                                                                                    
                                                                                                    
                                                                                                    
                                                                                                    
                                                                                                    
                                                                                                    
                                                                                                    
                                                                                                    
                                                                                                    
                                                                                                    
                                                                                                    
                                                                                                    
                           
<?xpacket end="w"?></metadata>
<defs>
    <style>
      .cls-1 {
        fill: #a50034;
        fill-rule: evenodd;
      }
    </style>
  </defs>
  <path id="Rounded_Rectangle_587" data-name="Rounded Rectangle 587" class="cls-1" d="M64.8,259.835l-0.053,0a0.747,0.747,0,0,1-.051-1.494c10.7-.7,18.767-4.011,18.767-7.7,0-2.313-3.472-4.681-9.061-6.179a0.744,0.744,0,0,1-.538-0.919,0.772,0.772,0,0,1,.95-0.522c6.478,1.737,10.193,4.514,10.193,7.62C85.006,255.275,76.7,259.057,64.8,259.835Zm11.817-19.824H75.394a2.394,2.394,0,0,1-2.384-2.4v-1.228a2.394,2.394,0,0,1,2.384-2.4h1.222a2.394,2.394,0,0,1,2.383,2.4v1.228A2.394,2.394,0,0,1,76.616,240.011Zm0.909-3.627a0.913,0.913,0,0,0-.909-0.915H75.394a0.913,0.913,0,0,0-.91.915v1.228a0.913,0.913,0,0,0,.91.915h1.222a0.913,0.913,0,0,0,.909-0.915v-1.228ZM68.458,248H67.113a2.507,2.507,0,0,1-2.549-2.456v-6.088A2.506,2.506,0,0,1,67.113,237h1.346a2.506,2.506,0,0,1,2.549,2.456v6.088A2.508,2.508,0,0,1,68.458,248Zm1.081-8.544a1.063,1.063,0,0,0-1.081-1.041H67.113a1.062,1.062,0,0,0-1.08,1.041v6.088a1.062,1.062,0,0,0,1.08,1.041h1.346a1.063,1.063,0,0,0,1.081-1.041v-6.088ZM60.683,248H59.337a2.508,2.508,0,0,1-2.549-2.456v-6.275A2.315,2.315,0,0,1,59.142,237h1.736a2.314,2.314,0,0,1,2.353,2.269,0.735,0.735,0,0,1-1.469,0,0.87,0.87,0,0,0-.884-0.854H59.142a0.87,0.87,0,0,0-.885.854v2.763a2.608,2.608,0,0,1,1.08-.239h1.345a2.506,2.506,0,0,1,2.549,2.455v1.3A2.507,2.507,0,0,1,60.683,248Zm1.08-3.752a1.061,1.061,0,0,0-1.08-1.04H59.337a1.061,1.061,0,0,0-1.08,1.04v1.3a1.062,1.062,0,0,0,1.08,1.041h1.345a1.062,1.062,0,0,0,1.08-1.041v-1.3ZM57.45,255.623l3.683,3.034a0.733,0.733,0,0,1,0,1.139l-3.683,3.032a0.792,0.792,0,0,1-1.089-.084,0.732,0.732,0,0,1,.087-1.055l2.126-1.751c-12.808-.363-22.585-4.312-22.585-9.3,0-3.106,3.716-5.883,10.193-7.62a0.772,0.772,0,0,1,.95.522,0.744,0.744,0,0,1-.538.919c-5.589,1.5-9.061,3.866-9.061,6.179,0,3.6,8.34,7.428,20.955,7.8l-2.04-1.68a0.73,0.73,0,0,1-.087-1.053A0.792,0.792,0,0,1,57.45,255.623ZM53.1,248H51.366a2.315,2.315,0,0,1-2.353-2.268,0.735,0.735,0,0,1,1.469,0,0.87,0.87,0,0,0,.885.853H53.1a0.871,0.871,0,0,0,.886-0.853v-1.671A0.87,0.87,0,0,0,53.1,243.2H51.366a0.708,0.708,0,1,1,0-1.415H53.1a0.871,0.871,0,0,0,.886-0.854v-1.67a0.87,0.87,0,0,0-.886-0.854H51.366a0.87,0.87,0,0,0-.885.854,0.735,0.735,0,0,1-1.469,0A2.314,2.314,0,0,1,51.366,237H53.1a2.315,2.315,0,0,1,2.354,2.269v1.67A2.213,2.213,0,0,1,54.8,242.5a2.213,2.213,0,0,1,.654,1.561v1.671A2.315,2.315,0,0,1,53.1,248Z" transform="translate(-30.5 -218.5)"/>
</svg>
