<?xml version="1.0" encoding="utf-8"?>
<!-- Generator: Adobe Illustrator 25.2.3, SVG Export Plug-In . SVG Version: 6.00 Build 0)  -->
<svg version="1.1" id="레이어_1" xmlns="http://www.w3.org/2000/svg" xmlns:xlink="http://www.w3.org/1999/xlink" x="0px"
	 y="0px" width="60px" height="60px" viewBox="0 0 60 60" style="enable-background:new 0 0 60 60;" xml:space="preserve">
<style type="text/css">
	.st0{fill-rule:evenodd;clip-rule:evenodd;fill:#333333;}
	.st1{fill:#333333;}
</style>
<path class="st0" d="M7.7,30l1.5-1.5c0.4-0.4,0.4-1.1,0-1.5s-1.1-0.4-1.5,0l-2.3,2.3c-0.4,0.4-0.4,1.1,0,1.5l2.3,2.3
	c0.4,0.4,1.1,0.4,1.5,0s0.4-1.1,0-1.5L7.7,30z"/>
<path class="st0" d="M54.1,30l-1.5,1.5c-0.4,0.4-0.4,1.1,0,1.5s1.1,0.4,1.5,0l2.3-2.3c0.4-0.4,0.4-1.1,0-1.5l-2.3-2.3
	c-0.4-0.4-1.1-0.4-1.5,0s-0.4,1.1,0,1.5L54.1,30z"/>
<path class="st0" d="M30.9,6.8l1.5,1.5c0.4,0.4,1.1,0.4,1.5,0c0.4-0.4,0.4-1.1,0-1.5l-2.3-2.3c-0.4-0.4-1.1-0.4-1.5,0l-2.3,2.3
	c-0.4,0.4-0.4,1.1,0,1.5c0.4,0.4,1.1,0.4,1.5,0L30.9,6.8z"/>
<path class="st0" d="M30.9,53.2l-1.5-1.5c-0.4-0.4-1.1-0.4-1.5,0s-0.4,1.1,0,1.5l2.3,2.3c0.4,0.4,1.1,0.4,1.5,0l2.3-2.3
	c0.4-0.4,0.4-1.1,0-1.5s-1.1-0.4-1.5,0L30.9,53.2z"/>
<g>
	<path class="st1" d="M23.5,25h-2l3.4,10h2.5l3.5-10h-1.8l-2.8,8.5L23.5,25z"/>
	<path class="st1" d="M39.8,28L39.8,28c0-2.1-1.6-3-3.9-3h-3.5v10h1.9v-4h1.2l2.7,4h2.1l-2.9-4.3C38.8,30.4,39.8,29.6,39.8,28z
		 M36,29.6h-1.6v-3.2H36c1.2,0,2,0.4,2,1.5V28C37.9,29.1,37.2,29.6,36,29.6z"/>
</g>
</svg>
