<?xml version="1.0" encoding="utf-8"?>
<!-- Generator: Adobe Illustrator 26.4.1, SVG Export Plug-In . SVG Version: 6.00 Build 0)  -->
<svg version="1.1" id="레이어_1" xmlns="http://www.w3.org/2000/svg" xmlns:xlink="http://www.w3.org/1999/xlink" x="0px"
	 y="0px" viewBox="0 0 38 38" style="enable-background:new 0 0 38 38;" xml:space="preserve">
<style type="text/css">
	.st0{fill:#A50034;}
</style>
<g id="video" transform="matrix(1 0 0 1 -164 -70 )">
	<path class="st0" d="M168.6,89c0-8,6.4-14.4,14.4-14.4S197.4,81,197.4,89s-6.4,14.4-14.4,14.4S168.6,97,168.6,89z M195.4,89
		c0-6.9-5.5-12.4-12.4-12.4s-12.4,5.5-12.4,12.4s5.5,12.4,12.4,12.4S195.4,95.9,195.4,89z M180,93.8v-9.6c0-0.1,0-0.2,0.2-0.3
		c0.1-0.2,0.5-0.4,0.8-0.2c0.5,0.3,6.8,4.6,7.2,4.8c0.1,0,0.1,0.1,0.2,0.2c0.2,0.3,0.1,0.7-0.2,0.8c-0.6,0.4-6.9,4.6-7.2,4.8
		c-0.1,0.1-0.2,0.1-0.4,0.1C180.2,94.4,180,94.1,180,93.8z"/>
</g>
</svg>
