<?xml version="1.0" encoding="utf-8"?>
<!-- Generator: Adobe Illustrator 26.4.1, SVG Export Plug-In . SVG Version: 6.00 Build 0)  -->
<svg version="1.1" id="레이어_1" xmlns="http://www.w3.org/2000/svg" xmlns:xlink="http://www.w3.org/1999/xlink" x="0px"
	 y="0px" viewBox="0 0 38 38" style="enable-background:new 0 0 38 38;" xml:space="preserve">
<style type="text/css">
	.st0{fill-rule:evenodd;clip-rule:evenodd;fill:#333333;}
</style>
<g id="_x33_60vr">
	<path id="Rounded_Rectangle_587" class="st0" d="M22.3,29L22.3,29c-0.4,0-0.6-0.3-0.6-0.6c0-0.4,0.2-0.7,0.6-0.7
		c8.3-0.6,14.5-3.5,14.5-6.8c0-2-2.7-4.1-7-5.5c-0.3-0.1-0.5-0.4-0.4-0.8l0,0c0.1-0.4,0.4-0.6,0.7-0.5c5,1.5,7.9,4,7.9,6.7
		C38,25,31.6,28.3,22.3,29z M31.5,11.5h-0.9c-1,0-1.9-1-1.8-2.1V8.3c0-1.2,0.8-2.1,1.8-2.1h0.9c1,0,1.8,1,1.8,2.1v1.1
		C33.3,10.5,32.5,11.5,31.5,11.5L31.5,11.5z M32.2,8.3c0-0.4-0.3-0.8-0.7-0.8h-0.9c-0.4,0-0.7,0.4-0.7,0.8v1.1
		c0,0.4,0.3,0.8,0.7,0.8h0.9c0.4,0,0.7-0.4,0.7-0.8V8.3L32.2,8.3z M25.2,18.6h-1c-1.1,0-2-1-2-2.2V11c0-1.2,0.9-2.2,2-2.2h1
		c1.1,0,2,1,2,2.2v5.4C27.1,17.6,26.2,18.6,25.2,18.6z M26,11c0-0.5-0.4-0.9-0.8-0.9h-1c-0.5,0-0.8,0.4-0.8,0.9v5.4
		c0,0.5,0.4,0.9,0.8,0.9h1c0.5,0,0.8-0.4,0.8-0.9V11L26,11z M19.1,18.6h-1c-1.1,0-2-1-2-2.2v-5.5c0-1.1,0.8-2,1.8-2h1.3
		c1,0,1.8,0.9,1.8,2c0,0.4-0.3,0.6-0.6,0.6c-0.3,0-0.5-0.3-0.5-0.6c0-0.4-0.3-0.8-0.7-0.8h-1.3c-0.4,0-0.7,0.3-0.7,0.8v2.4
		c0.3-0.1,0.5-0.2,0.8-0.2h1c1.1,0,2,0.9,2,2.2v1.1C21.1,17.6,20.2,18.6,19.1,18.6z M20,15.2c0-0.5-0.4-0.9-0.8-0.9h-1
		c-0.5,0-0.8,0.4-0.8,0.9v1.1c0,0.5,0.4,0.9,0.8,0.9h1c0.5,0,0.8-0.4,0.8-0.9V15.2L20,15.2z M16.6,25.3l2.9,2.7
		c0.2,0.2,0.3,0.6,0.1,0.9L19.5,29l-2.9,2.7c-0.3,0.2-0.6,0.2-0.8-0.1c-0.2-0.3-0.2-0.7,0-0.9l0,0l1.6-1.5C7.6,28.8,0,25.3,0,20.9
		c0-2.7,2.9-5.2,7.9-6.7c0.3-0.1,0.6,0.1,0.7,0.5s-0.1,0.7-0.4,0.8l0,0c-4.3,1.3-7,3.4-7,5.5c0,3.2,6.5,6.6,16.2,6.9l-1.6-1.5
		c-0.2-0.2-0.3-0.6-0.1-0.9l0,0C16,25.1,16.4,25.1,16.6,25.3z M13.3,18.6H12c-1,0-1.8-0.9-1.8-2c0-0.4,0.3-0.6,0.6-0.6
		s0.5,0.3,0.5,0.6c0,0.4,0.3,0.8,0.7,0.8h1.3c0.4,0,0.7-0.3,0.7-0.8v-1.5c0-0.4-0.3-0.8-0.7-0.8l0,0H12c-0.3,0-0.6-0.3-0.6-0.6
		s0.2-0.6,0.5-0.6l0,0h1.3c0.4,0,0.7-0.3,0.7-0.8v-1.5c0-0.4-0.3-0.8-0.7-0.8l0,0h-1.3c-0.4,0-0.7,0.3-0.7,0.8
		c0,0.4-0.3,0.6-0.6,0.6s-0.5-0.3-0.5-0.6c0-1.1,0.8-2,1.8-2h1.3c1,0,1.8,0.9,1.8,2v1.5c0,0.5-0.2,1-0.5,1.4
		c0.3,0.4,0.5,0.9,0.5,1.4v1.5C15.1,17.7,14.3,18.6,13.3,18.6z"/>
</g>
</svg>
