<?xml version="1.0" encoding="utf-8"?>
<!-- Generator: Adobe Illustrator 26.4.1, SVG Export Plug-In . SVG Version: 6.00 Build 0)  -->
<svg version="1.1" id="레이어_1" xmlns="http://www.w3.org/2000/svg" xmlns:xlink="http://www.w3.org/1999/xlink" x="0px"
	 y="0px" viewBox="0 0 38 38" style="enable-background:new 0 0 38 38;" xml:space="preserve">
<style type="text/css">
	.st0{fill:none;stroke:#A50034;stroke-width:1.6;stroke-miterlimit:10;}
	.st1{fill:none;stroke:#A50034;stroke-width:1.6;}
</style>
<g id="image">
	<path class="st0" d="M12,11V7.7c0-0.3,0.2-0.5,0.5-0.5h20.2c0.3,0,0.5,0.2,0.5,0.5v16.4c0,0.3-0.2,0.5-0.5,0.5h-4.2"/>
	<path class="st0" d="M5.3,13.6h20.2c0.3,0,0.5,0.2,0.5,0.5v16.4c0,0.3-0.2,0.5-0.5,0.5H5.3c-0.3,0-0.5-0.2-0.5-0.5V14.1
		C4.8,13.8,5.1,13.6,5.3,13.6z"/>
	<path class="st1" d="M4.8,24l4.9-4.2l5.4,6.6 M18.9,31l-3.8-4.6 M15.2,26.4l5.2-4.5l5.6,6.3"/>
	<circle class="st1" cx="16.7" cy="18.5" r="1.9"/>
</g>
</svg>
