<svg width="60" height="60" viewBox="0 0 60 60" fill="none" xmlns="http://www.w3.org/2000/svg">
<g clip-path="url(#clip0_95_969)">
<path d="M393.01 -156.56C391.476 -174.299 388.084 -191.829 382.89 -208.86C377.549 -226.39 369.733 -243.068 359.68 -258.39L355.8 -264.11C354.48 -266 352.97 -267.78 351.56 -269.61L347.25 -275L342.55 -280.09C340.96 -281.76 339.47 -283.5 337.79 -285.09L332.73 -289.76C329.43 -292.92 325.79 -295.7 322.24 -298.52C315.014 -303.904 307.366 -308.696 299.37 -312.85C291.537 -316.84 283.406 -320.217 275.05 -322.95C266.914 -325.572 258.603 -327.62 250.18 -329.08C241.98 -330.47 233.706 -331.378 225.4 -331.8C209.303 -332.48 193.178 -331.603 177.25 -329.18C161.796 -326.865 146.532 -323.423 131.58 -318.88C101.97 -309.96 74.0001 -297.71 47.4301 -283.44C76.3001 -292.14 105.74 -298.44 135.05 -301.11C149.538 -302.484 164.107 -302.798 178.64 -302.05C192.702 -301.368 206.664 -299.321 220.33 -295.94C226.884 -294.238 233.334 -292.161 239.65 -289.72C245.738 -287.328 251.65 -284.508 257.34 -281.28C262.802 -278.142 268.014 -274.588 272.93 -270.65C277.627 -266.782 282.014 -262.553 286.05 -258C287.93 -255.65 289.91 -253.44 291.55 -250.94L294.12 -247.33C294.99 -246.14 295.65 -244.8 296.43 -243.56L298.69 -239.8L300.64 -235.8C301.26 -234.47 301.98 -233.22 302.54 -231.86L304.18 -227.77C308.467 -216.679 311.16 -205.037 312.18 -193.19C314.42 -169.04 310.89 -143.44 304.09 -118.29L301.39 -108.86L298.3 -99.45C297.81 -97.89 297.3 -96.33 296.66 -94.77L294.94 -90.1L293.22 -85.44L291.33 -80.79L289.44 -76.16C288.83 -74.62 288.19 -73.08 287.44 -71.55L283.35 -62.36C281.94 -59.36 280.42 -56.2799 278.98 -53.2499C278.23 -51.7399 277.54 -50.25 276.76 -48.71L274.42 -44.21C262.06 -20.21 247.34 2.97004 231.42 25.2C215.241 47.3997 197.792 68.6452 179.16 88.83L179.28 88.92L328.39 46.44L296.49 173.64C313.194 145.897 328.295 117.22 341.72 87.7501C355.17 57.6601 366.95 26.75 375.93 -5.34L377.63 -11.34C378.19 -13.34 378.68 -15.3399 379.2 -17.4099C380.2 -21.4699 381.27 -25.49 382.2 -29.56L384.89 -41.84C385.36 -43.84 385.76 -45.9299 386.14 -48.0099L387.29 -54.22L388.43 -60.4099L389.43 -66.68L390.37 -72.95C390.69 -75.03 390.99 -77.12 391.21 -79.24L392.65 -91.89L393.65 -104.67C394.746 -121.958 394.532 -139.304 393.01 -156.56V-156.56Z" fill="#A50034"/>
<g clip-path="url(#clip1_95_969)">
<path d="M42.8495 25.2034C50.977 4.35108 32.5 12.5 26.5 15.5C50.5 -2.00001 53.115 19.127 49.0088 29.2543V22.1652L42.8495 25.2034Z" fill="#A50034"/>
<path d="M35.6637 30.2671L46.9557 26.2162V37.3561L44.5567 35.8471C33.4469 52.2368 21.292 54.5724 15.4076 52.2297C6.26417 48.2579 9.61355 38.8785 13 33.5C8.93625 44.4226 13.291 46.4374 15.4076 47.2649C23.2406 50.1359 33.3256 38.3895 38.2145 31.979L35.6637 30.2671Z" fill="#A50034"/>
<path d="M19.961 24.274C20.5437 24.4767 21.0123 24.787 21.367 25.205C21.7217 25.6103 21.899 26.136 21.899 26.782C21.899 27.5293 21.7533 28.1817 21.462 28.739C21.1707 29.2837 20.7653 29.7397 20.246 30.107C19.7393 30.4743 19.1313 30.753 18.422 30.943C17.7253 31.1203 16.9653 31.209 16.142 31.209C15.192 31.209 14.3497 31.076 13.615 30.81C12.893 30.544 12.323 30.1703 11.905 29.689L13.292 28.207C13.6087 28.511 14.0393 28.7643 14.584 28.967C15.1413 29.157 15.7303 29.252 16.351 29.252C16.7437 29.252 17.111 29.214 17.453 29.138C17.8077 29.0493 18.1117 28.9227 18.365 28.758C18.631 28.5933 18.8337 28.3843 18.973 28.131C19.125 27.8777 19.201 27.58 19.201 27.238C19.201 26.706 18.973 26.2753 18.517 25.946C18.0737 25.6167 17.415 25.452 16.541 25.452C16.3637 25.452 16.1737 25.4647 15.971 25.49C15.781 25.5027 15.5847 25.5217 15.382 25.547L15.762 23.552H16.636C16.94 23.552 17.2757 23.533 17.643 23.495C18.023 23.4443 18.3777 23.3493 18.707 23.21C19.0363 23.0707 19.3087 22.8743 19.524 22.621C19.752 22.3677 19.866 22.032 19.866 21.614C19.866 21.1453 19.676 20.8097 19.296 20.607C18.916 20.3917 18.4727 20.284 17.966 20.284C17.396 20.284 16.8767 20.36 16.408 20.512C15.9393 20.6513 15.534 20.835 15.192 21.063L14.413 19.448C14.8943 19.1313 15.496 18.859 16.218 18.631C16.94 18.403 17.738 18.289 18.612 18.289C19.1567 18.289 19.676 18.3523 20.17 18.479C20.664 18.593 21.0883 18.7703 21.443 19.011C21.8103 19.2517 22.1017 19.5557 22.317 19.923C22.5323 20.2777 22.64 20.6957 22.64 21.177C22.64 21.595 22.564 21.975 22.412 22.317C22.26 22.659 22.0573 22.9567 21.804 23.21C21.5633 23.4633 21.2783 23.6787 20.949 23.856C20.6323 24.0333 20.303 24.1727 19.961 24.274Z" fill="#A50034"/>
<path d="M29.2991 18.479C30.2111 18.479 31.0091 18.5993 31.6931 18.84C32.3897 19.068 32.9724 19.3973 33.4411 19.828C33.9224 20.246 34.2834 20.759 34.5241 21.367C34.7647 21.9623 34.8851 22.6273 34.8851 23.362C34.8851 24.6793 34.6824 25.8193 34.2771 26.782C33.8844 27.732 33.3271 28.5237 32.6051 29.157C31.8831 29.7777 31.0154 30.24 30.0021 30.544C28.9887 30.848 27.8741 31 26.6581 31H22.8961L25.5371 18.479H29.2991ZM26.9811 29.043C27.7791 29.043 28.5011 28.9227 29.1471 28.682C29.7931 28.4413 30.3441 28.093 30.8001 27.637C31.2687 27.1683 31.6234 26.6047 31.8641 25.946C32.1174 25.2747 32.2441 24.5083 32.2441 23.647C32.2441 22.6463 31.9591 21.8673 31.3891 21.31C30.8191 20.74 30.0021 20.455 28.9381 20.455H27.6271L25.8221 29.043H26.9811Z" fill="#A50034"/>
</g>
</g>
<defs>
<clipPath id="clip0_95_969">
<rect width="729.3" height="724.86" fill="white" transform="translate(-335 -332)"/>
</clipPath>
<clipPath id="clip1_95_969">
<rect width="47" height="47" fill="white" transform="translate(7 6)"/>
</clipPath>
</defs>
</svg>
