<svg xmlns="http://www.w3.org/2000/svg" width="12" height="12" viewBox="0 0 12 12"><path d="M534 1531v5a1 1 0 0 1-1 1h-6a1 1 0 0 1-1-1v-6a1 1 0 0 1 1-1h4.994v-1H526a1 1 0 0 0-1 1v8a1 1 0 0 0 1 1h8a1 1 0 0 0 1-1v-6.01Zm-1.5-5h4a.5.5 0 0 1 0 1h-4a.5.5 0 0 1 0-1Zm4 0a.5.5 0 0 1 .5.5v4a.5.5 0 0 1-1 0v-4a.5.5 0 0 1 .5-.5Zm-6.295 5.75 4.549-4.55a.736.736 0 0 1 1.014 0 .724.724 0 0 1 0 1.02l-4.549 4.55a.717.717 0 0 1-1.014 0 .724.724 0 0 1 0-1.02Z" style="fill:#a50034;fill-rule:evenodd" transform="translate(-525 -1526)"/></svg>