<svg xmlns="http://www.w3.org/2000/svg" width="12" height="12" viewBox="0 0 12 12"><path d="M1223 1005v5a1 1 0 0 1-1 1h-6a1 1 0 0 1-1-1v-6a1 1 0 0 1 1-1h4.99v-1H1215a1 1 0 0 0-1 1v8a1 1 0 0 0 1 1h8a1 1 0 0 0 1-1v-6.01Zm-1.5-5h4a.5.5 0 0 1 0 1h-4a.5.5 0 0 1 0-1Zm4 0a.5.5 0 0 1 .5.5v4a.5.5 0 0 1-1 0v-4a.5.5 0 0 1 .5-.5Zm-6.29 5.75 4.54-4.54a.724.724 0 0 1 1.02 0 .712.712 0 0 1 0 1.01l-4.55 4.55a.712.712 0 0 1-1.01 0 .724.724 0 0 1 0-1.02Z" style="fill:#fff;fill-rule:evenodd" transform="translate(-1214 -1000)"/></svg>