<svg xmlns="http://www.w3.org/2000/svg" width="32" height="32" viewBox="0 0 32 32"><circle cx="16" cy="16" r="15" style="opacity:.75"/><path d="M800 1248a16 16 0 1 1-16 16 16 16 0 0 1 16-16Zm.031 1.34a14.69 14.69 0 1 1-14.687 14.69 14.691 14.691 0 0 1 14.687-14.69Z" style="fill:#fff;fill-rule:evenodd;opacity:.75" transform="translate(-784 -1248)"/><path d="M797 1259.66v8.66a.638.638 0 0 0 .977.58c.389-.24 6.06-3.89 6.709-4.3a.7.7 0 0 0 0-1.17c-.467-.3-6.164-4.01-6.729-4.34a.631.631 0 0 0-.957.57Z" data-name="play" style="fill:#fff;fill-rule:evenodd" transform="translate(-784 -1248)"/></svg>