<svg xmlns="http://www.w3.org/2000/svg" width="42" height="42" viewBox="0 0 42 42"><path d="M825 1039h-20a2 2 0 0 1-2-2v-18a2 2 0 0 1 2-2h4v-1a1 1 0 0 1 2 0v1h8v-1a1 1 0 0 1 2 0v1h4a2 2 0 0 1 2 2v18a2 2 0 0 1-2 2Zm0-20h-4v1a1 1 0 0 1-2 0v-1h-8v1a1 1 0 0 1-2 0v-1h-4v18h20v-18Zm-18 4h16a1 1 0 0 1 0 2h-16a1 1 0 0 1 0-2Zm2 5a1 1 0 1 1-1 1 1 1 0 0 1 1-1Zm0 4a1 1 0 1 1-1 1 1 1 0 0 1 1-1Zm4-4a1 1 0 1 1-1 1 1 1 0 0 1 1-1Zm0 4a1 1 0 1 1-1 1 1 1 0 0 1 1-1Zm4-4a1 1 0 1 1-1 1 1 1 0 0 1 1-1Zm0 4a1 1 0 1 1-1 1 1 1 0 0 1 1-1Zm4-4a1 1 0 1 1-1 1 1 1 0 0 1 1-1Zm0 4a1 1 0 1 1-1 1 1 1 0 0 1 1-1Z" style="fill:#333;fill-rule:evenodd" transform="translate(-794 -1006)"/></svg>