<svg xmlns="http://www.w3.org/2000/svg" xml:space="preserve" id="레이어_1" width="108" height="108" x="0" y="0" viewBox="0 0 108 108" style="enable-background:new 0 0 108 108" version="1.1"><style>.st1{fill-rule:evenodd;clip-rule:evenodd;fill:#fff}</style><path d="M237.9 90.5c-6.6 0-12-5.4-12-12s5.4-12 12-12 12 5.4 12 12-5.4 12-12 12zm4.6-16-6.7 6.4-2.6-2.5-1.3 1.3 3.9 3.8 8.1-7.7-1.4-1.3z" style="fill-rule:evenodd;clip-rule:evenodd;fill:#9b4c69"/><path d="M231.1 42.9c-.4.4-.9.8-1.5 1-.6.2-1.2.4-1.8.4-.6 0-1.2-.1-1.8-.4-.6-.2-1.1-.6-1.5-1l-8.5-8.5c-.4-.4-.8-.9-1-1.5-.2-.6-.4-1.2-.4-1.8 0-.7.1-1.3.4-1.8.2-.6.6-1.1 1-1.5.4-.4.9-.8 1.5-1 .6-.2 1.2-.3 1.9-.4.6 0 1.2.1 1.8.4.6.3 1.1.6 1.5 1l5.2 5.2 15-15.1c-3.8-3.8-9.1-6.2-14.9-6.2-11.7 0-21.1 9.4-21.1 21.1 0 11.6 9.4 21 21 21S249 44.4 249 32.7c0-2.3-.4-4.6-1.1-6.7l-16.8 16.9z" class="st1"/><circle cx="169.1" cy="43.9" r="11.1" style="fill:none;stroke:#fff;stroke-miterlimit:10"/><path d="M173.6 39.6c.2 0 .4 0 .6.1.2.1.3.2.5.3.1.1.2.3.3.5.1.2.1.4.1.6s0 .4-.1.6c-.1.2-.2.3-.3.5l-5.8 5.7c-.1.1-.3.2-.5.3-.2.1-.4.1-.6.1s-.4 0-.6-.1c-.2-.1-.3-.2-.5-.3l-2.6-2.6c-.1-.1-.2-.3-.3-.5s-.1-.4-.1-.6c0-.2 0-.4.1-.6s.2-.3.3-.5c.1-.1.3-.2.5-.3.2-.1.4-.1.6-.1.2 0 .4 0 .6.1.2.1.3.2.5.3l1.6 1.6 4.7-4.7c.1-.1.3-.2.5-.3.1-.1.3-.1.5-.1z" style="fill:#fff"/><path d="M156.1 63.9c-6.1 0-11 4.9-11 11s4.9 11 11 11 11-4.9 11-11-5-11-11-11zm0 20c-5 0-9-4-9-9s4-9 9-9 9 4 9 9-4.1 9-9 9z" class="st1"/><path d="M155.9 78.5c0 .1-.1.1-.1.2-.4.4-1.1.4-1.5 0l-2.9-2.9c-.4-.4-.4-1.1 0-1.5.4-.4 1-.4 1.4 0l2.3 2.3 4.3-4.3c.4-.4 1-.3 1.4 0 .3.4.3.9 0 1.3l-4.9 4.9zM179.8 117.8c-.1.1-.1.2-.2.3-.9.9-2.3.9-3.1 0l-6.3-6.2c-.8-.9-.8-2.3.1-3.1.9-.8 2.2-.8 3.1 0l4.9 4.9 9.2-9.2c.8-.8 2.1-.7 2.9.1.7.8.7 2 0 2.8l-10.6 10.4z" class="st1"/><path d="M53.9 1.6C24.3 1.6 1 25.3 1 54.5s23.8 52.9 52.9 52.9 52.9-23.8 52.9-52.9c0-29.2-23.8-52.9-52.9-52.9zm26.9 42.1L52.6 71.9c0 .4-.4.4-.4.9-2.2 2.2-6.3 2.2-8.5 0l-17-16.6c-2.2-2.2-2.2-6.3 0-8.5s5.8-2.2 8.1 0l13 13L72.5 36c2.2-2.2 5.8-1.8 7.6.4 2.9 1.9 2.9 5.5.7 7.3z" style="fill-rule:evenodd;clip-rule:evenodd;fill:#a50034"/></svg>