<svg xmlns="http://www.w3.org/2000/svg" width="20" height="20" viewBox="0 0 20 20"><path d="M1239.98 1129.28a2.734 2.734 0 0 1-2.77 2.72h-5.45v.94a.749.749 0 0 1-.76.74.741.741 0 0 1-.75-.74v-.94h-5.47a2.756 2.756 0 0 1-2.79-2.71v-7.58a2.756 2.756 0 0 1 2.79-2.71h5.47v-.95a.747.747 0 0 1 .75-.74.756.756 0 0 1 .76.74v.95h5.45a2.758 2.758 0 0 1 2.8 2.71Zm-11.87-4.33-1.49-1.45a.779.779 0 0 0-1.11 0 .755.755 0 0 0 0 1.09l.93.91-.93.91a.755.755 0 0 0 0 1.09.785.785 0 0 0 1.11 0l1.49-1.46a.755.755 0 0 0 0-1.09Zm3.65-4.95h-1.51v11h1.51v-11Zm4.65 4.58a.767.767 0 0 0 0-1.1.809.809 0 0 0-1.12 0l-1.5 1.47a.767.767 0 0 0 0 1.1l1.5 1.46a.787.787 0 0 0 .56.23.822.822 0 0 0 .56-.23.767.767 0 0 0 0-1.1l-.94-.91Z" style="fill:#6b6b6b;fill-rule:evenodd" transform="translate(-1221 -1115.5)"/></svg>