<svg xmlns="http://www.w3.org/2000/svg" width="20" height="20" viewBox="0 0 20 20"><path d="m1100.35 1246.62 5.04 4.37-5.04 4.38a.857.857 0 0 0 0 1.34 1.207 1.207 0 0 0 1.54 0l5.8-5.03a.9.9 0 0 0 .32-.69.879.879 0 0 0-.32-.68l-5.8-5.03a1.183 1.183 0 0 0-1.54 0 .857.857 0 0 0 0 1.34Zm6 0 5.04 4.37-5.04 4.38a.857.857 0 0 0 0 1.34 1.207 1.207 0 0 0 1.54 0l5.8-5.03a.9.9 0 0 0 .32-.69.879.879 0 0 0-.32-.68l-5.8-5.03a1.183 1.183 0 0 0-1.54 0 .857.857 0 0 0 0 1.34Z" style="fill-rule:evenodd" transform="translate(-1097.015 -1241)"/></svg>