<svg xmlns="http://www.w3.org/2000/svg" width="20" height="20" viewBox="0 0 20 20"><path d="m364.744 313.186-4.408 4.533a.906.906 0 0 1-1.305 0 .968.968 0 0 1 0-1.341l3.766-3.872-3.766-3.872a.968.968 0 0 1 0-1.341.9.9 0 0 1 1.305 0l4.408 4.532a1 1 0 0 1 0 1.361Zm-5.506-.68a.961.961 0 0 1-.268.68l-4.408 4.533a.906.906 0 0 1-1.305 0 .968.968 0 0 1 0-1.341l3.765-3.872-3.765-3.872a.968.968 0 0 1 0-1.341.9.9 0 0 1 1.305 0l4.408 4.532a.962.962 0 0 1 .268.681Z" data-name="&gt;&gt;" style="fill:#999;fill-rule:evenodd" transform="translate(-349 -302.5)"/></svg>