<svg xmlns="http://www.w3.org/2000/svg" width="20" height="20" viewBox="0 0 20 20"><path d="m849.685 1246.62-5.043 4.37 5.043 4.38a.861.861 0 0 1 0 1.34 1.215 1.215 0 0 1-1.546 0l-5.8-5.03a.886.886 0 0 1-.317-.69.866.866 0 0 1 .317-.68l5.8-5.03a1.191 1.191 0 0 1 1.546 0 .861.861 0 0 1 0 1.34Zm-6 0-5.043 4.37 5.043 4.38a.861.861 0 0 1 0 1.34 1.215 1.215 0 0 1-1.546 0l-5.8-5.03a.886.886 0 0 1-.317-.69.866.866 0 0 1 .317-.68l5.8-5.03a1.191 1.191 0 0 1 1.546 0 .861.861 0 0 1 0 1.34Z" style="fill:#767676;fill-rule:evenodd" transform="translate(-833.031 -1241)"/></svg>