<svg xmlns="http://www.w3.org/2000/svg" width="11" height="12" viewBox="0 0 11 12"><path d="M1239 565h-9a1 1 0 0 1-1-1v-2h1v2h9v-2h1v2a1 1 0 0 1-1 1Zm-4.5-12a.5.5 0 0 1 .5.5v8a.5.5 0 0 1-1 0v-8a.5.5 0 0 1 .5-.5Zm-3.36 5.141a.472.472 0 0 1 .67 0l3.02 3.016a.486.486 0 0 1 0 .672.474.474 0 0 1-.67 0l-3.02-3.016a.486.486 0 0 1 0-.672Zm6.75-.03a.491.491 0 0 0-.69 0l-3.06 3.06a.486.486 0 0 0 .69.686l3.06-3.059a.485.485 0 0 0 0-.687Z" data-name="icon_download copy" style="fill:#6b6b6b;fill-rule:evenodd" transform="translate(-1229 -553)"/></svg>