<svg xmlns="http://www.w3.org/2000/svg" width="56" height="56" viewBox="0 0 56 56"><path d="M777.9 533.411a1.974 1.974 0 0 1 .1.588v36a2 2 0 0 1-2 2h-52a2 2 0 0 1-2-2V534a1.962 1.962 0 0 1 .105-.61.973.973 0 0 1 1.3-1.29 1.984 1.984 0 0 1 .6-.1h52a1.961 1.961 0 0 1 .615.107.966.966 0 0 1 1.262.393 1 1 0 0 1 .018.911Zm-37.464 16.059L725.111 570h49.778l-15.328-20.534-8.745 7.6a.98.98 0 0 1-.669.411.849.849 0 0 1-.133.009.972.972 0 0 1-.2-.014.939.939 0 0 1-.231-.078c-.025-.012-.052-.011-.076-.025l-.032-.028a.95.95 0 0 1-.2-.175ZM724 568.44l15.056-20.17L724 535.165v33.275Zm1.651-34.44L750 555.189 774.387 534h-48.736ZM776 535.184l-15.059 13.082L776 568.44v-33.256Z" style="fill:#333;fill-rule:evenodd" transform="translate(-722 -524)"/></svg>