<svg xmlns="http://www.w3.org/2000/svg" width="35" height="35" viewBox="0 0 35 35"><path d="M1424.5 205a17.5 17.5 0 1 1-17.5 17.5 17.5 17.5 0 0 1 17.5-17.5Zm8.55 24h-17.1a.936.936 0 0 1-.95-.928v-11.145a.936.936 0 0 1 .95-.929h17.1a.943.943 0 0 1 .95.929v11.143a.943.943 0 0 1-.95.93Zm-2.11-2.013-4.04-3.554-1.93 1.731a.966.966 0 0 1-.94 0l-1.95-1.763-4.03 3.586h12.89Zm-13.93-1.329 3.67-3.515-3.67-3.415v6.93Zm1.62-7.661 5.87 5.29 1.86-1.71c.01-.008.01-.019.02-.026s.02-.007.03-.012l4.01-3.542h-11.79Zm9.67 4.182 3.72 3.488v-6.888Z" style="fill:#333;fill-rule:evenodd" transform="translate(-1407 -205)"/></svg>