<svg xmlns="http://www.w3.org/2000/svg" width="35" height="35" viewBox="0 0 35 35"><path d="M1236.5 240a17.5 17.5 0 1 1 17.5-17.5 17.5 17.5 0 0 1-17.5 17.5Zm-10.49-17.5a6.5 6.5 0 0 0 4.46 6.147 6.623 6.623 0 0 0 7.15-1.868 7.241 7.241 0 0 0 1.34-5.2c-2.11-.019-4.23-.012-6.34-.009 0 .739 0 1.475.01 2.213 1.26.034 2.53.02 3.79.044a3.623 3.623 0 0 1-2.15 2.462 4.19 4.19 0 0 1-5.52-2.478 4.1 4.1 0 0 1 2.7-5.249 4.728 4.728 0 0 1 3.92.75q.87-.817 1.68-1.7a6.717 6.717 0 0 0-4.76-1.6 6.5 6.5 0 0 0-6.28 6.488Zm17-3.5c-.01.665-.01 1.332-.01 2-.67.006-1.33.01-1.99.014v1.989c.66 0 1.32.007 1.99.014 0 .665 0 1.329.01 2h1.98c0-.667 0-1.332.01-2l1.99-.011V221c-.67 0-1.33-.006-1.99-.014 0-.665-.01-1.331-.01-2h-1.98Z" data-name="google+" style="fill:#333;fill-rule:evenodd" transform="translate(-1219 -205)"/></svg>