<svg xmlns="http://www.w3.org/2000/svg" xml:space="preserve" style="enable-background:new 0 0 576 420" viewBox="0 0 576 420"><path d="M571.9 107.5c0 21.8-17.6 39.4-39.4 39.4-.2 0-.4-.1-.7-.1l-49.7 242.4c-2.7 14.9-15.7 25.9-31 25.9H125.6c-15.2 0-28.3-10.9-31-25.9L44.9 146.8c-.2 0-.5.1-1.6.1-21.7 0-39.4-17.7-39.4-39.4s18.5-39.4 39.4-39.4 39.4 17.7 39.4 39.4c0 8.9-3.5 16.6-8.4 23.2l88.2 70.7c15.7 12.5 38.9 7.4 47.9-10.5l56.7-113.5c-11.1-6.9-19-18.8-19-32.9 0-21.8 18.5-39.4 40.3-39.4s38.5 17.7 38.5 39.4c0 14.1-7.8 26-19 32.9l56.7 113.5c9 18 32.2 23.1 47.9 10.5l88.2-70.7c-4.1-6.6-7.5-15.3-7.5-23.2 0-21.8 17.6-39.4 39.4-39.4 21.7 0 39.3 17.6 39.3 39.4z" style="fill:#fff"/></svg>