<svg xmlns="http://www.w3.org/2000/svg" data-name="레이어 1" viewBox="0 0 56 56"><path d="M49 60a11 11 0 1 1 11-11 11 11 0 0 1-11 11Zm0-20a9 9 0 1 0 9 9 9 9 0 0 0-9-9ZM24 29a3 3 0 0 1 0-6h10a3 3 0 0 1 0 6Zm11-3a.94.94 0 0 0-1-1H24a1 1 0 0 0 0 2h10a.94.94 0 0 0 1-1Zm17-7H6v33h30l1 2H5a.94.94 0 0 1-1-1V18a.94.94 0 0 1 1-1H4l8-12a.94.94 0 0 1 1-1h31a.94.94 0 0 1 1 1l9 12h-1a.94.94 0 0 1 1 1v19l-2-1ZM28 6H14L7 17h21Zm15 0H30v11h21Zm12 44h-5v5h-2v-5h-5v-2h5v-5h2v5h5Z" data-name="Register Your Product" style="fill:#a50034;fill-rule:evenodd" transform="translate(-4 -4)"/></svg>