<svg xmlns="http://www.w3.org/2000/svg" xml:space="preserve" id="Layer_1" x="0" y="0" style="enable-background:new 0 0 132.7 132.7" version="1.1" viewBox="0 0 132.7 132.7"><style>.st0{fill:#303030}.st1{fill:#fff}</style><path d="M108.5 44.1H14.9V27h93.6v17.1zm-91.6-2h89.6V29H16.9v13.1z" class="st0"/><path d="M15.9 43.3h91.6v55.9H15.9z" class="st1"/><path d="M108.5 100.2H14.9V42.3h93.6v57.9zm-91.6-2h89.6V44.3H16.9v53.9zM96.1 34h3.3v2.4h-3.3zM86.8 34h3.3v2.4h-3.3zM77.2 34h3.3v2.4h-3.3z" class="st0"/><path d="M80.6 64.8h46.9v49H80.6z" class="st1"/><path d="M89.8 99.9c-1.9 0-2.8-1.4-1.8-3.1l13.7-23.6c1-1.7 2.6-1.7 3.5 0l13.7 23.6c1 1.7.2 3.1-1.8 3.1H89.8z" class="st1"/><path d="M117.1 100.9H89.8c-1.3 0-2.3-.5-2.9-1.4-.5-.9-.5-2.1.2-3.2l13.7-23.6c.6-1.1 1.6-1.8 2.6-1.8s2 .7 2.6 1.8l13.7 23.5c.7 1.2.7 2.3.2 3.2-.5 1-1.5 1.5-2.8 1.5zM103.5 73c-.3 0-.6.3-.9.8L88.9 97.3c-.3.5-.3.9-.2 1.2s.6.4 1.1.4H117c.6 0 1-.2 1.2-.4.1-.3.1-.7-.2-1.2l-13.7-23.5c-.2-.5-.6-.8-.8-.8z" class="st0"/><path d="M105 82.2h-3l-.1 7.5h3l.1-7.5zm-3 10.4v2.6h3v-2.6h-3z" class="st0"/><path d="M75.5 62.9c4.6-10.6-4.9-9-5.5-8.9-2 .4-3.9 1.1-5.6 1.8-6.6-.4-12.5 4.3-14 10.6 3.4-3.9 5.8-5.5 7.2-6-4.2 3.8-8.3 8.8-9.8 14.3-3.9 13.9 8.2 8.1 9.9 7.2 1.8.9 3.9 1.4 6 1.4 5.9 0 10.9-3.9 12.8-9.1h-7.1c-1.1 1.8-3.1 3-5.4 3-3.4 0-6.1-2.6-6.1-5.9h19.4c.2-2.8-.4-5.8-1.8-8.4zm-.7-6.8c1.2.8 2.2 2 .5 6.3-1.5-2.5-3.9-4.5-6.6-5.6 1.1-.6 4.3-1.9 6.1-.7zM49.9 82c-1-1-1.1-3.4 1-7.9 1.1 3.1 3.1 5.7 5.9 7.3-1.4.9-4.9 2.6-6.9.6zm7.9-14.3c.1-3.1 2.8-5.7 6.1-5.7s6 2.6 6.1 5.7H57.8z" style="fill:#d8d8d8"/></svg>