<svg xmlns="http://www.w3.org/2000/svg" xml:space="preserve" style="enable-background:new 0 0 20 20;" viewBox="0 0 20 20"><path d="M18.2 10c0 4.6-3.7 8.3-8.2 8.3S1.8 14.6 1.8 10c0-4.6 3.7-8.3 8.2-8.3s8.2 3.7 8.2 8.3zm1.7 0c0 5.5-4.4 10-9.9 10S.1 15.5.1 10 4.5 0 10 0s9.9 4.5 9.9 10zm-5.1-2.7c-.4 0-.7.3-.7.7V8.3L12 10l-1.6-2.6c.1-.1.2-.3.2-.5 0-.5-.3-.7-.7-.7-.4 0-.7.3-.7.7 0 .2.1.5.3.6L8 10 5.9 8.2v-.3c0-.4-.4-.7-.7-.7-.4 0-.8.3-.8.7 0 .4.4.7.7.7h.1l1.1 4.3s0 .1.1.1c0 0 1.4 1 3.5 1 1.1 0 2.3-.2 3.6-.9l.1-.1 1.1-4.2c.4 0 .7-.3.7-.7.2-.5-.2-.9-.6-.8z" style="fill-rule:evenodd;clip-rule:evenodd;fill:#333333"/></svg>