<svg xmlns="http://www.w3.org/2000/svg" width="35" height="35" viewBox="0 0 35 35"><path d="M1072.5 2201a17.5 17.5 0 1 1-17.5 17.5 17.5 17.5 0 0 1 17.5-17.5Zm8.5 18.39v5.61h-3v-5.23a1.97 1.97 0 0 0-1.94-2.22 2.218 2.218 0 0 0-1.95 1.19 2.151 2.151 0 0 0-.11.8v5.46h-3s.04-9.08 0-10h3.27v1.6a.076.076 0 0 1-.02.04h.02v-.04a3.284 3.284 0 0 1 2.96-1.61c2.15 0 3.77 1.4 3.77 4.4Zm-13.49-8.39a1.505 1.505 0 0 0-.04 3.01h.02a1.505 1.505 0 0 0 .02-3.01Zm-1.51 14h3v-10.01h-3V2225Z" style="fill:#333;fill-rule:evenodd" transform="translate(-1055 -2201)"/></svg>