<svg xmlns="http://www.w3.org/2000/svg" xml:space="preserve" width="35" height="35" style="enable-background:new 0 0 35 35" viewBox="0 0 35 35"><path d="M17.5 0C7.8 0 0 7.8 0 17.5S7.8 35 17.5 35 35 27.2 35 17.5 27.2 0 17.5 0zm2.2 21.8L16.4 25c-1.8 1.8-4.7 1.8-6.5 0-1.8-1.8-1.8-4.7 0-6.5l1.5-1.5c.2-.2.5-.3.8-.3.3 0 .6.1.8.3.4.4.4 1.1 0 1.5L11.5 20c-.4.4-.7 1.1-.7 1.7 0 1.3 1.1 2.4 2.4 2.4.6 0 1.2-.2 1.7-.7l3.2-3.2c.5-.4.7-1.1.7-1.7 0-.8-.4-1.6-1.1-2-.2-.2-.4-.4-.5-.7-.1-.3 0-.6.1-.8.2-.2.4-.4.7-.5.3-.1.6 0 .8.1.3.2.5.4.7.6 1.9 1.9 1.9 4.8.2 6.6zm5.3-5.4L23.5 18c-.2.2-.5.3-.8.3-.3 0-.6-.1-.8-.3-.4-.4-.4-1.1 0-1.5l1.5-1.5c.4-.4.7-1.1.7-1.7 0-1.3-1.1-2.4-2.4-2.4-.6 0-1.2.2-1.7.7l-3.2 3.2c-.5.4-.7 1.1-.7 1.7 0 .8.4 1.6 1.1 2 .2.2.4.4.5.7.1.3 0 .6-.1.8-.3.5-1 .6-1.5.3-.3-.2-.5-.4-.8-.6-1.8-1.8-1.8-4.7 0-6.5l3.2-3.2c.9-.9 2-1.3 3.2-1.3 1.2 0 2.4.5 3.2 1.3 1.9 1.8 1.9 4.7.1 6.4z" style="fill-rule:evenodd;clip-rule:evenodd;fill:#333"/></svg>