<svg xmlns="http://www.w3.org/2000/svg" xml:space="preserve" style="enable-background:new 0 0 72 72" viewBox="0 0 72 72"><path d="m15.4 69.6-10-27.1H11l5.7 16.3 1.4 4.1h.1l1.4-4.1 5.5-16.3h5.5l-9.9 27.1h-5.3zM34.8 42.5h5.3v27.1h-5.3V42.5zM51.9 59.8v9.8h-5.3V42.5h10.1c3.2 0 5.7.7 7.4 2.1 1.7 1.4 2.5 3.6 2.5 6.5s-.8 5.1-2.5 6.5c-1.7 1.4-4.1 2.1-7.4 2.1h-4.8v.1zm0-13v8.7h4.7c1.4 0 2.6-.4 3.4-1.1.8-.7 1.2-1.8 1.2-3.2s-.4-2.5-1.2-3.3c-.8-.7-2-1.1-3.4-1.1h-4.7zM56.4 5.3c-1.7 0-3.1 1.4-3.1 3.1 0 .5.1.8.2 1.3l-8.9 7.8L38 6c.6-.6 1-1.5 1-2.4 0-2-1.4-3.2-3.1-3.2s-3.1 1.5-3.1 3.2c0 1 .5 2 1.3 2.5l-6.4 11.4-9.2-8.2c.2-.3.2-.8.2-1.3 0-1.7-1.5-3.1-3.1-3.1S12.4 6.3 12.4 8s1.5 3.1 3.1 3.1h.5l4.7 18.8c0 .2.1.3.3.5.1.1 6 4.3 15 4.3 4.5 0 9.7-1 15.3-4.1.2-.1.3-.3.5-.6l4.6-18.4h.2c1.7 0 3.1-1.5 3.1-3.1 0-1.9-1.5-3.3-3.3-3.2z"/></svg>