<svg xmlns="http://www.w3.org/2000/svg" xml:space="preserve" width="20" height="28" style="enable-background:new 0 0 20 28;" viewBox="0 0 20 28"><path d="M10 10.5c-2.6 0-4.8-2.1-4.8-4.8C5.2 3.1 7.4 1 10 1s4.8 2.1 4.8 4.8c0 2.6-2.2 4.7-4.8 4.7zm8.2 8.4c-.3 0-1.1.1-1.1.1H3c-.5 0-.9 0-1.4-.1-.4-.1-.6-.5-.5-.9.9-3.5 4.6-6 8.9-6s7.9 2.5 8.9 6c.1.4-.1.8-.5.9h-.2z" style="fill-rule:evenodd;clip-rule:evenodd;fill:#A51735"/><path d="M1.1 20.7h2.5c1.6 0 2.6.4 2.6 1.8 0 .7-.4 1.3-1.1 1.6.8.1 1.4.8 1.4 1.7 0 1.4-1.2 2.1-2.9 2.1H1.1v-7.2zm2.3 3c.9 0 1.3-.4 1.3-.9 0-.7-.4-.9-1.3-.9h-.9v1.8h.9zm.2 3.2c1.1 0 1.6-.4 1.6-1.2 0-.7-.5-1.1-1.6-1.1H2.5v2.2c0 .1 1.1.1 1.1.1zm3.8.3c2-1.8 3.2-3 3.2-4.2 0-.8-.4-1.2-1.1-1.2-.5 0-.9.4-1.3.8l-.9-.7c.7-.8 1.3-1.2 2.4-1.2 1.4 0 2.4.9 2.4 2.2 0 1.3-1.2 2.4-2.5 3.8h2.8V28h-5v-.8zm6.3-6.5h2.5c1.6 0 2.6.4 2.6 1.8 0 .7-.4 1.3-1.1 1.6.8.1 1.4.8 1.4 1.7 0 1.4-1.2 2.1-2.9 2.1h-2.6c.1.1.1-7.2.1-7.2zm2.4 3c.9 0 1.3-.4 1.3-.9 0-.7-.4-.9-1.3-.9h-.9v1.8h.9zm.1 3.2c1.1 0 1.6-.4 1.6-1.2 0-.7-.5-1.1-1.6-1.1h-1.1v2.2c.1.1 1.1.1 1.1.1z" style="fill:#A51735"/></svg>