<svg xmlns="http://www.w3.org/2000/svg" xml:space="preserve" style="enable-background:new 0 0 20 20" viewBox="0 0 20 20"><path d="M7 15H4v-2h3v2zM4 5h8v2H4V5zm5 6H4V9h5v2zm.9 9H2c-1.1 0-2-.9-2-2V2C0 .9.9 0 2 0h12c1.1 0 2 .9 2 2v6.4h-1.8V2.7c0-.6-.4-1-1-1H2.8c-.6 0-1 .4-1 1v14.7c0 .6.4 1 1 1h7" style="fill-rule:evenodd;clip-rule:evenodd;fill:#1a1a1a"/><path d="M14.6 19.8c-2.8 0-5.1-2.3-5.1-5.1s2.3-5.1 5.1-5.1 5.1 2.3 5.1 5.1-2.2 5.1-5.1 5.1zm0-9.2c-2.3 0-4.1 1.8-4.1 4.1s1.8 4.1 4.1 4.1 4.1-1.8 4.1-4.1c.1-2.2-1.6-4-3.8-4.1-.1-.1-.2-.1-.3 0zm1.2 5.9-1.5-1.3c-.1-.1-.2-.2-.1-.4v-2.3c0-.3.3-.5.6-.5.2 0 .4.2.5.5v2.1l1.4 1.2c.2.2.2.4 0 .6-.4.3-.7.3-.9.1z" style="fill-rule:evenodd;clip-rule:evenodd;fill:#1a1a1a;stroke:#1a1a1a;stroke-width:.5;stroke-miterlimit:10"/></svg>
