<svg xmlns="http://www.w3.org/2000/svg" width="35" height="35" viewBox="0 0 35 35"><path fill="#333" fill-rule="evenodd" d="M17.5 34.998c-9.665 0-17.5-7.835-17.5-17.5s7.835-17.5 17.5-17.5S35 7.833 35 17.498s-7.835 17.5-17.5 17.5Zm4.273-16.634c-.611 0-1.831 1.152-4.273 1.152-2.442 0-3.663-1.152-4.273-1.152-.671 0-1.221.518-1.221 1.152 0 .576.366.864.611.98.732.403 3.052 1.324 3.052 1.324l-2.625 3.112s-.488.518-.488.922c0 .633.549 1.152 1.22 1.152.611 0 .916-.403.916-.403l2.808-3.054 2.747 3.054s.305.403.915.403c.672 0 1.221-.519 1.221-1.152 0-.346-.488-.922-.488-.922l-2.564-3.112s2.32-.921 3.052-1.324c.245-.174.611-.404.611-.98 0-.634-.55-1.152-1.221-1.152ZM17.5 7.993c2.567 0 4.648 2.129 4.648 4.753 0 2.625-2.081 4.754-4.648 4.754-2.567 0-4.649-2.129-4.649-4.754 0-2.624 2.082-4.753 4.649-4.753Zm0 2.161c1.4 0 2.536 1.16 2.536 2.592 0 1.432-1.136 2.593-2.536 2.593-1.4 0-2.536-1.161-2.536-2.593s1.136-2.592 2.536-2.592Z"/></svg>
