<svg xmlns="http://www.w3.org/2000/svg" width="35" height="35" viewBox="0 0 35 35"><path fill="#333" fill-rule="evenodd" d="M17.5 35A17.5 17.5 0 1 1 35 17.5 17.5 17.5 0 0 1 17.5 35Zm1.67-12.947c4.04.31 6.3-4.031 5.75-8.039-.49-3.551-4.04-5.359-7.82-4.937a6.742 6.742 0 0 0-6.09 6.2c-.08 2.108.52 3.689 2.53 4.133.87-1.535-.28-1.873-.46-2.985-.74-4.551 5.25-7.657 8.39-4.479 2.17 2.2.74 8.971-2.76 8.269-3.35-.674 1.64-6.063-1.03-7.12-2.18-.86-3.33 2.628-2.3 4.364-.61 2.981-1.91 5.79-1.38 9.529 1.71-1.238 2.28-3.611 2.76-6.085a4.835 4.835 0 0 0 2.41 1.149Z"/></svg>