<svg xmlns="http://www.w3.org/2000/svg" width="20" height="20" viewBox="0 0 20 20"><path fill="#6b6b6b" fill-rule="evenodd" d="M18 16h-2v1a2.006 2.006 0 0 1-2 2H6a2.006 2.006 0 0 1-2-2v-1H2a2.006 2.006 0 0 1-2-2V8a2.006 2.006 0 0 1 2-2h2V3a2.006 2.006 0 0 1 2-2h8a2.006 2.006 0 0 1 2 2v2.98l-.323.02H18a2.006 2.006 0 0 1 2 2v6a2.006 2.006 0 0 1-2 2ZM5.5 17a.507.507 0 0 0 .5.5h8a.507.507 0 0 0 .5-.5v-5a.507.507 0 0 0-.5-.5H6a.507.507 0 0 0-.5.5v5Zm9-14a.507.507 0 0 0-.5-.5H6a.507.507 0 0 0-.5.5v3h9V3Zm4 5a.507.507 0 0 0-.5-.5H2a.507.507 0 0 0-.5.5v6a.507.507 0 0 0 .5.5h2V12a2.006 2.006 0 0 1 2-2h8a2.006 2.006 0 0 1 2 2v2.5h2a.507.507 0 0 0 .5-.5V8Z"/></svg>