<svg xmlns="http://www.w3.org/2000/svg" xml:space="preserve" id="레이어_1" x="0" y="0" version="1.1" viewBox="0 0 17.7 17.8"><style>.st0{fill:none}.st1{fill:#1a1a1a}</style><path d="M6.6 7.5c0 .1.1.2.2.2h2.6c.1 0 .2-.1.2-.2s-.1-.2-.2-.2H6.8c-.1 0-.2.1-.2.2zM11.9 1.4H8.8V4H14zM7.4 1.4H3.9L2.1 4h5.3zM13.5 11c-1.4 0-2.6 1.1-2.6 2.6 0 1.4 1.1 2.6 2.6 2.6 1.4 0 2.6-1.2 2.6-2.6 0-1.4-1.2-2.6-2.6-2.6zm2 2.6c0 .4-.3.7-.7.7h-.6v.6c0 .4-.3.7-.7.7-.4 0-.7-.3-.7-.7v-.6h-.5c-.4 0-.7-.3-.7-.7 0-.4.3-.7.7-.7h.6v-.6c0-.4.3-.7.7-.7.4 0 .7.3.7.7v.6h.6c.4 0 .7.3.6.7z" class="st0"/><path d="M1.4 14.8V5.3h13.4V9l1.4.7V4.1l-3-3.5c0-.3-.3-.6-.7-.6H3.3c-.3.1-.6.3-.6.7L0 4.1v11.3c0 .4.3.7.7.7h8.9L9 14.8H1.4zM8.8 1.4h3.1L14 4H8.8V1.4zm-4.9 0h3.5V4H2.1l1.8-2.6z" class="st1"/><path d="M14.3 12.9v-.6c0-.4-.3-.7-.7-.7-.4 0-.7.3-.7.7v.6h-.6c-.4 0-.7.3-.7.7 0 .4.3.7.7.7h.5v.6c0 .4.3.7.7.7.4 0 .7-.3.7-.7v-.6h.6c.4 0 .7-.3.7-.7.1-.4-.2-.7-.6-.7h-.6z" class="st1"/><path d="M13.5 9.4c-2.3 0-4.2 1.9-4.2 4.2 0 2.3 1.9 4.2 4.2 4.2s4.2-1.9 4.2-4.2c0-2.3-1.9-4.2-4.2-4.2zm0 6.8c-1.5 0-2.6-1.2-2.6-2.6 0-1.5 1.2-2.6 2.6-2.6s2.6 1.2 2.6 2.6c0 1.4-1.2 2.6-2.6 2.6zM5.3 7.5c0 .8.6 1.6 1.5 1.6h2.6c.9 0 1.5-.7 1.5-1.5s-.7-1.5-1.5-1.5H6.8V6c-.9 0-1.5.7-1.5 1.5zm4.1-.2c.1 0 .2.1.2.2s-.1.2-.2.2H6.8c-.1 0-.2-.1-.2-.2s.1-.2.2-.2h2.6z" class="st1"/></svg>