<svg xmlns="http://www.w3.org/2000/svg" xml:space="preserve" width="18.1" height="17.9" overflow="visible" viewBox="0 0 18.1 17.9"><style>.st1,.st2{fill:#1a1a1a}.st2{fill-rule:evenodd;clip-rule:evenodd}</style><path fill="none" d="M8.9 8c1.8 0 3.3-1.5 3.3-3.3 0-1.8-1.5-3.3-3.3-3.3-1.8.1-3.3 1.6-3.3 3.4S7.1 8 8.9 8z"/><path d="M8.9 11C4.6 11 1 13.5 0 17c-.1.4.1.8.5.9.5.1.9-.2 1-.5.8-2.8 3.9-4.8 7.4-4.8.4 0 .8 0 1.2.1.4.1.8-.2.8-.6.1-.4-.2-.8-.7-.9-.4-.2-.8-.2-1.3-.2zM8.9 9.5c2.6 0 4.8-2.1 4.8-4.8 0-2.6-2.1-4.8-4.8-4.8-2.6.1-4.8 2.2-4.8 4.9 0 2.6 2.2 4.7 4.8 4.7zm0-8c1.8 0 3.3 1.5 3.3 3.3 0 1.8-1.5 3.3-3.3 3.3C7.1 8 5.6 6.6 5.6 4.8s1.5-3.3 3.3-3.3z" class="st1"/><path d="M10.8 14.2c0-.4.3-.7.7-.7h5.9c.4 0 .7.3.7.7 0 .4-.3.7-.7.7h-5.9c-.4 0-.7-.3-.7-.7z" class="st2"/><path d="M14.4 10.5c.4 0 .7.3.7.7v5.9c0 .4-.3.7-.7.7-.4 0-.7-.3-.7-.7v-5.9c0-.4.3-.7.7-.7z" class="st2"/></svg>