<svg xmlns="http://www.w3.org/2000/svg" width="35" height="35" viewBox="0 0 35 35"><path d="M896.5 9363a17.5 17.5 0 1 1 17.5-17.5 17.5 17.5 0 0 1-17.5 17.5Zm9.01-13.81c-.066-.01-.133-.03-.2-.04a3.9 3.9 0 0 1-1.719-.94 5.943 5.943 0 0 1-1.335-1.81 3.85 3.85 0 0 1-.2-.53.325.325 0 0 1 .113-.36 1.251 1.251 0 0 1 .244-.16c.22-.09.446-.17.669-.26a2.3 2.3 0 0 0 .863-.52.86.86 0 0 0 .118-1.1 1.05 1.05 0 0 0-.531-.4 1.083 1.083 0 0 0-.9.02c-.136.06-.279.11-.422.16a.462.462 0 0 1-.285.02.151.151 0 0 1 0-.03c.021-.39.044-.77.062-1.16a11.873 11.873 0 0 0-.038-1.95 3.982 3.982 0 0 0-.335-1.23 4.859 4.859 0 0 0-2.154-2.34 4.958 4.958 0 0 0-2.089-.57 5.988 5.988 0 0 0-1.738.15 4.644 4.644 0 0 0-2.664 1.74 4.912 4.912 0 0 0-.781 1.46 5.444 5.444 0 0 0-.215 1.55c-.019.67.014 1.35.059 2.02.008.12.012.24.018.36a.334.334 0 0 1-.094.01 3.435 3.435 0 0 1-.447-.09c-.137-.04-.265-.12-.4-.15a1.075 1.075 0 0 0-1.124.35.821.821 0 0 0-.015 1.1 1.689 1.689 0 0 0 .516.41 4.206 4.206 0 0 0 .75.31 1.877 1.877 0 0 1 .543.27.39.39 0 0 1 .141.42 1.536 1.536 0 0 1-.059.19 5.949 5.949 0 0 1-1.538 2.18 3.82 3.82 0 0 1-1.833.92.522.522 0 0 0-.38.23.689.689 0 0 0 0 .78 1.32 1.32 0 0 0 .525.46 4.127 4.127 0 0 0 1.016.37c.23.05.462.1.694.14a.088.088 0 0 1 .079.08c.022.12.048.23.074.34s.043.2.068.3a.629.629 0 0 0 .76.52c.191-.03.38-.07.57-.1a3.449 3.449 0 0 1 1.281 0 1.838 1.838 0 0 1 .735.33c.336.24.667.49 1 .73a3.681 3.681 0 0 0 2.631.61 3.344 3.344 0 0 0 1.386-.53c.334-.22.655-.46.982-.69a2.272 2.272 0 0 1 .974-.47 3.821 3.821 0 0 1 1.068-.01c.238.04.474.09.712.12a.632.632 0 0 0 .758-.53c.047-.21.1-.42.141-.62a.087.087 0 0 1 .072-.08c.331-.07.664-.14.991-.22a2.821 2.821 0 0 0 .946-.43 1.024 1.024 0 0 0 .369-.46.621.621 0 0 0-.432-.87Z" style="fill:#333;fill-rule:evenodd" transform="translate(-879 -9328)"/></svg>