<svg xmlns="http://www.w3.org/2000/svg" width="24" height="24" viewBox="0 0 24 24"><circle cx="12" cy="11.5" r="10.5" style="fill:#fff"/><path d="M334.5 572a1.5 1.5 0 1 1-1.5 1.5 1.5 1.5 0 0 1 1.5-1.5Zm5 0a1.5 1.5 0 1 1-1.5 1.5 1.5 1.5 0 0 1 1.5-1.5Zm5 0a1.5 1.5 0 1 1-1.5 1.5 1.5 1.5 0 0 1 1.5-1.5Z" data-name="Rounded Rectangle 2 copy 2" style="fill-rule:evenodd;fill:#333" transform="translate(-327.5 -562)"/><path d="m339 582.3-8.245 2.662c-.58.157-.89-.183-.693-.758L332.7 576Z" data-name="Rounded Rectangle 1" style="fill-rule:evenodd;fill:#fff" transform="translate(-327.5 -562)"/></svg>