<svg xmlns="http://www.w3.org/2000/svg" width="35" height="35" viewBox="0 0 35 35"><path d="M1233.5 1273a17.5 17.5 0 1 1 17.5-17.5 17.5 17.5 0 0 1-17.5 17.5Zm-.94-11a4.326 4.326 0 0 0 1.39 1.27 5.448 5.448 0 0 0 .76.39.142.142 0 0 0 .06.02 3.292 3.292 0 0 0 .6.15c.31.05.63.07.94.12a2.279 2.279 0 0 1 .8.26 2.933 2.933 0 0 1 .84.73c.04.05.04.05.06 0a8.663 8.663 0 0 0 .34-1.13 5.242 5.242 0 0 0 .1-1.58c-.01-.06-.03-.07-.08-.05a4.723 4.723 0 0 1-2.18.13 5.734 5.734 0 0 1-.7-.13.227.227 0 0 0-.04-.01 5.446 5.446 0 0 1-1.13-.51 3.233 3.233 0 0 1-.71-.57 2.729 2.729 0 0 1-.4-.6.137.137 0 0 0-.1-.08 2.492 2.492 0 0 1-.76-.39.934.934 0 0 1-.28-.28 2.886 2.886 0 0 0-.04.29 3.034 3.034 0 0 0 .53 1.97Zm-3.67-4.85a8.913 8.913 0 0 0 1.46.14 4.538 4.538 0 0 0 1.04-.11 3.637 3.637 0 0 0 1.22-.47c.05-.04.05-.04 0-.08a2.762 2.762 0 0 1-.92-.88 3.077 3.077 0 0 1-.38-2.59c.02-.07.02-.07-.04-.05a2.713 2.713 0 0 0-1.22.64 3.019 3.019 0 0 0-.76 1.1 5.536 5.536 0 0 0-.45 2.24c0 .04.01.06.05.06Zm-2.85-1.03c.22.12.45.22.67.32a9.605 9.605 0 0 0 1.73.61c.06.02.06.02.06-.05.01-.23.02-.47.05-.7a5.322 5.322 0 0 1 .74-2.2c.01-.02.03-.03.04-.05a3.118 3.118 0 0 1 1.22-1.06 3.438 3.438 0 0 1 .89-.29.075.075 0 0 0 .07-.05 2.261 2.261 0 0 1 .16-.26 2.581 2.581 0 0 1 1.15-1.02.016.016 0 0 0 .02-.02.137.137 0 0 0-.08-.05 2.063 2.063 0 0 0-.35-.12 3.326 3.326 0 0 0-.99-.09 3.6 3.6 0 0 0-1.04.18 4.708 4.708 0 0 0-2.21 1.64.151.151 0 0 0-.04.04c-.07.12-.15.23-.22.35a13.07 13.07 0 0 0-.6 1.18 4.032 4.032 0 0 1-.6.97 3.526 3.526 0 0 1-.68.6c-.05.04-.05.04.01.07Zm1.28-6.26a4.37 4.37 0 0 0-.94.59c-.05.05-.05.05.01.07.08.05.17.1.26.15a2.075 2.075 0 0 1 .76.74c.1.19.18.39.27.58s.17.37.26.56c.02.03.04.04.07 0a1.738 1.738 0 0 1 .13-.15 4.979 4.979 0 0 1 1.4-1.15 3.793 3.793 0 0 1 .83-.36.035.035 0 0 0 .02-.01 4.981 4.981 0 0 1 1.15-.16 4.036 4.036 0 0 1 .98.11 2.628 2.628 0 0 1 .68.31.134.134 0 0 0 .09.01 2.84 2.84 0 0 1 .71-.11 3.657 3.657 0 0 1 .66.04.085.085 0 0 0 .07 0 .1.1 0 0 0-.02-.07 2.178 2.178 0 0 0-.35-.54 4.236 4.236 0 0 0-1.48-1.04 5.344 5.344 0 0 0-.96-.3 4.426 4.426 0 0 0-1.74-.06 6.665 6.665 0 0 0-.76.12 8.291 8.291 0 0 0-2.1.67Zm8.59-.24a4.621 4.621 0 0 0-1.03-1.25 4.93 4.93 0 0 0-.8-.58 3.107 3.107 0 0 0-.41-.2c-.31-.12-.63-.19-.95-.28a2.643 2.643 0 0 1-.88-.38 2.915 2.915 0 0 1-.81-.9c-.03-.06-.03-.06-.06 0a6.969 6.969 0 0 0-.35.73 5.169 5.169 0 0 0-.44 1.86c0 .09 0 .09.08.08a4.359 4.359 0 0 1 .72-.05 4.829 4.829 0 0 1 1.19.18 6.293 6.293 0 0 1 .93.3.219.219 0 0 0 .05.03 5.008 5.008 0 0 1 1.13.74 2.6 2.6 0 0 1 .8 1.13.356.356 0 0 0 .23.26.037.037 0 0 1 .03.01 2.027 2.027 0 0 1 .81.73h.01a.257.257 0 0 0 .02-.05 3.076 3.076 0 0 0-.27-2.36Zm2.72 4.05a.05.05 0 0 0-.06-.06c-.31 0-.62 0-.94.02a6.06 6.06 0 0 0-1.19.21 4.09 4.09 0 0 0-1.36.66c-.06.05-.11.09-.17.15a2.847 2.847 0 0 1 1.47 1.33 3.091 3.091 0 0 1 .33 2.01.417.417 0 0 0 .06-.02 2.769 2.769 0 0 0 1.59-1.64 5.237 5.237 0 0 0 .27-2.66Zm2.91.54c-.21-.07-.42-.13-.63-.19a10.109 10.109 0 0 0-1.88-.38c-.04 0-.06 0-.05.05.02.15.03.29.04.43a6.1 6.1 0 0 1-.03 1.13 4.905 4.905 0 0 1-.41 1.45.076.076 0 0 1-.02.04 3.178 3.178 0 0 1-1.11 1.27 3.125 3.125 0 0 1-.78.38.135.135 0 0 0-.09.09 2.518 2.518 0 0 1-.15.34 2.677 2.677 0 0 1-.91 1.06l-.09.06a.442.442 0 0 0 .15.05 2.487 2.487 0 0 0 .98.05 3.67 3.67 0 0 0 1.37-.4 4.393 4.393 0 0 0 1.27-1.01 5.5 5.5 0 0 0 .66-.92 2.6 2.6 0 0 0 .16-.34 13.467 13.467 0 0 0 .49-1.39 3.745 3.745 0 0 1 .45-1 4.033 4.033 0 0 1 .6-.71c.04-.04.04-.05-.02-.06Zm.4 5.59c-.1-.04-.19-.07-.29-.11a2 2 0 0 1-.99-.85c-.16-.26-.32-.53-.51-.78-.06-.09-.05-.07-.1.01a6.171 6.171 0 0 1-1.09 1.3 5.022 5.022 0 0 1-.99.66h-.02a4.151 4.151 0 0 1-1.28.36 3.247 3.247 0 0 1-.88.01 2.571 2.571 0 0 1-.67-.19.1.1 0 0 0-.09 0 3.055 3.055 0 0 1-1.07.26c-.1.01-.21.01-.31.01-.04 0-.05.01-.03.04l.06.09a2.5 2.5 0 0 0 .79.73 4.37 4.37 0 0 0 1.66.6 5.37 5.37 0 0 0 1.55.03 4.317 4.317 0 0 0 .71-.17c.02-.01.05-.01.08-.02a8.213 8.213 0 0 0 .84-.27 9.27 9.27 0 0 0 1.83-.93 4.54 4.54 0 0 0 .82-.71c.04-.04.04-.05-.02-.07Z" style="fill:#333;fill-rule:evenodd" transform="translate(-1216 -1238)"/></svg>