<svg xmlns="http://www.w3.org/2000/svg" width="124" height="20" viewBox="0 0 124 20"><path d="m11.028.011 3.639 6.279 7.4 1.354-5.152 5.239.937 7.117-6.824-3.048L4.2 20l.94-7.117-5.152-5.239 7.4-1.354L11.027.011m25.481 0 3.639 6.279 7.4 1.354-5.147 5.239.932 7.117-6.823-3.048L29.686 20l.935-7.119-5.152-5.237 7.4-1.354L36.508.011m25.481 0 3.639 6.279 7.4 1.354-5.152 5.239.937 7.117-6.823-3.046L55.166 20l.934-7.117-5.151-5.239 7.4-1.354L61.99.011m25.481 0 3.639 6.28 7.4 1.354-5.152 5.239.936 7.116-6.824-3.046L80.647 20l.935-7.119-5.152-5.237 7.4-1.354L87.47.011m25.481 0 3.639 6.279 7.4 1.354-5.152 5.239.936 7.117-6.823-3.048L106.128 20l.935-7.119-5.152-5.239 7.4-1.354L112.95.009" data-name="Shape 1 copy 4" style="fill:#fff;stroke:#767676;stroke-width:1px;fill-rule:evenodd"/></svg>