<svg xmlns="http://www.w3.org/2000/svg" xml:space="preserve" width="20" height="20" viewBox="0 0 20 20" style="enable-background:new 0 0 20 20"><path fill="#A50034" fill-rule="evenodd" d="M10.1 19.4C4.9 19.4.7 15.2.7 10S4.9.6 10.1.6s9.4 4.2 9.4 9.4-4.2 9.4-9.4 9.4zm0-17.4c-4.4 0-8 3.6-8 8s3.6 8 8 8 8-3.6 8-8c.2-4.3-3.2-7.8-7.4-8-.2-.1-.4-.1-.6 0z"/><path fill="#A50034" d="M9.3 12.5c.5-.1 1.1-.1 1.7 0v2.1c0 .2-1.7.2-1.7 0v-2.1zM11.2 8.1l-.3 3.1H9.4L9 8.1V5.8s.3-.6 1.1-.6 1.1.6 1.1.6v2.3z"/></svg>