<svg xmlns="http://www.w3.org/2000/svg" width="20" height="20" viewBox="0 0 20 20"><path d="M34 2693a10 10 0 1 1 10-10 10 10 0 0 1-10 10Zm0-18a8 8 0 1 0 8 8 8 8 0 0 0-8-8Zm3.98 5.99c0 .09.006.18.006.26a5.746 5.746 0 0 1-5.841 5.74 5.9 5.9 0 0 1-3.147-.9 3.971 3.971 0 0 0 .49.02 4.169 4.169 0 0 0 2.55-.86 2.044 2.044 0 0 1-1.918-1.4 2.441 2.441 0 0 0 .386.04 2.392 2.392 0 0 0 .541-.07 2.032 2.032 0 0 1-1.647-1.98v-.03a2.088 2.088 0 0 0 .93.26 2 2 0 0 1-.635-2.7 5.852 5.852 0 0 0 4.232 2.11 1.991 1.991 0 0 1-.053-.46 2.04 2.04 0 0 1 2.053-2.02 2.078 2.078 0 0 1 1.5.64 4.171 4.171 0 0 0 1.3-.49 2.043 2.043 0 0 1-.9 1.12 4.218 4.218 0 0 0 1.179-.32 4.116 4.116 0 0 1-1.026 1.04Z" style="fill:#767676;fill-rule:evenodd" transform="translate(-24 -2673)"/></svg>