<svg xmlns="http://www.w3.org/2000/svg" width="35" height="35" viewBox="0 0 35 35"><path fill="#333" fill-rule="evenodd" d="M17.5 34.998c-9.665 0-17.5-7.835-17.5-17.5s7.835-17.5 17.5-17.5S35 7.833 35 17.498s-7.835 17.5-17.5 17.5Zm7.906-18.623c1.228-1.423 1.719-2.291 1.566-2.663-.147-.355-1.05-.261-1.05-.261l-3.007.017s-.223-.027-.388.059c-.162.084-.266.28-.266.28s-.476 1.101-1.11 2.037c-1.339 1.976-1.874 2.08-2.093 1.958-.509-.286-.382-1.149-.382-1.762 0-1.914.334-2.713-.651-2.919-.327-.069-.567-.145-1.403-.153-1.073-.009-1.981.034-2.495.253-.342.146-.606.47-.446.489.199.023.649.105.888.388.308.364.297 1.182.297 1.182s.177 2.254-.413 2.534c-.406.192-.962-.201-2.155-1.993-.612-.918-1.074-1.932-1.074-1.932s-.089-.19-.247-.291a1.38 1.38 0 0 0-.463-.163l-2.857.017s-.429.01-.586.172c-.14.144-.011.442-.011.442s2.237 4.548 4.769 6.839C14.152 23.006 17 22.999 17 22.999h1s.346-.165.53-.338c.17-.158.164-.456.164-.456s-.023-1.394.721-1.599c.734-.202 1.676 1.347 2.675 1.943.755.45 1.329.446 1.329.446l2.671-.002s1.397-.199.734-1.154c-.054-.078-.385-.706-1.985-1.996-1.675-1.35-1.451-1.132.567-3.468Z"/></svg>