<svg xmlns="http://www.w3.org/2000/svg" width="35" height="35" viewBox="0 0 35 35"><path fill="#333" fill-rule="evenodd" d="M17.5 34.998C7.835 34.998 0 27.162 0 17.497 0 7.832 7.835-.004 17.5-.004S35 7.832 35 17.497c0 9.665-7.835 17.501-17.5 17.501ZM14 7c-4.418 0-8 3.134-8 7 0 2.289 1.058 3.723 3 5l-1 3 3.017-1.508c.329.116.68.19 1.029.268A6.816 6.816 0 0 1 12 20c0-4.418 4.253-8 9.5-8 .044 0 .087.005.13.006C20.644 9.118 17.621 7 14 7Zm8 7c-4.418 0-8 2.686-8 6s3.582 6 8 6c.839 0 1.633-.124 2.393-.304L27 27v-2c2.343-1.046 3-2.806 3-5 0-3.314-3.582-6-8-6Zm2.5 6a1.5 1.5 0 1 1 .001-3.001A1.5 1.5 0 0 1 24.5 20Zm-5 0a1.5 1.5 0 1 1 .001-3.001A1.5 1.5 0 0 1 19.5 20Zm-3-7a1.5 1.5 0 1 1 .001-3.001A1.5 1.5 0 0 1 16.5 13Zm-5 0a1.5 1.5 0 1 1 .001-3.001A1.5 1.5 0 0 1 11.5 13Z"/></svg>