<svg xmlns="http://www.w3.org/2000/svg" width="35" height="35" viewBox="0 0 35 35"><path fill="#333" fill-rule="evenodd" d="M17.5 34.998C7.835 34.998 0 27.162 0 17.497 0 7.832 7.835-.004 17.5-.004S35 7.832 35 17.497c0 9.665-7.835 17.501-17.5 17.501Zm1.058-21.128c-.405.131-1.16.563-1.325.3-.092-.131.018-.338.055-.469.239-.92.332-2.196-.552-2.76-.645-.413-1.768-.3-2.449-.056-3.682 1.277-9.297 6.684-8.156 10.983.258.976.792 1.708 1.307 2.234 1.529 1.558 3.903 2.422 6.094 2.741a15.11 15.11 0 0 0 4.861-.094c2.614-.488 5.118-1.69 6.738-3.83 1.086-1.427 1.436-3.454 0-4.75a4.803 4.803 0 0 0-.607-.469c-.387-.263-.774-.413-1.234-.563-.442-.151-.515-.226-.349-.676.109-.319.202-.601.239-.976.202-1.69-1.142-2.197-2.67-2.065-.717.056-1.325.244-1.952.45Zm6.279 1.746a.743.743 0 0 0 .772-.244c.167-.188.24-.545.277-.845.129-1.258-.479-2.347-1.454-2.966-.553-.338-2.081-.676-2.541-.094-.405.507-.11 1.277.589 1.258.423-.019.516-.075.975.075.442.15.903.657.921 1.258.037.394-.405 1.314.461 1.558Zm2.559-5.67c-1.418-1.577-3.278-2.121-5.321-1.915-.369.038-.663.094-.866.319-.478.526-.239 1.296.424 1.409.553.093 1.933-.338 3.479.581.719.451 1.4 1.165 1.749 1.953.939 2.178-.092 3.154.239 3.905.277.619 1.105.676 1.474.207.275-.357.423-1.409.442-1.878.091-1.783-.516-3.36-1.62-4.581Zm-5.714 11.502c-.874 1.806-2.939 2.853-4.874 3.287-3.292.74-6.863-.109-8.259-2.131-.948-1.391-.576-2.836.335-3.955.782-.957 2.103-1.716 3.348-2.113 2.493-.795 5.581-.777 7.888.632 1.487.921 2.381 2.618 1.562 4.28Zm-3.705-1.042c-.177-1.333-1.22-2.129-2.528-2.355a3.898 3.898 0 0 0-1.096-.017c-1.22.121-2.369.796-2.97 1.836-.902 1.541-.142 3.082 1.025 3.688 2.564 1.369 5.905-.64 5.569-3.152Zm-2.969.03c.04-.23.297-.438.554-.438.277 0 .493.229.435.542-.139.625-1.147.583-.989-.104Zm-1.702 2.57c-.774.059-1.447-.508-1.263-1.289.122-.606.733-1.094 1.467-1.152.774-.04 1.427.527 1.264 1.288-.123.626-.734 1.114-1.468 1.153Z"/></svg>