<svg xmlns="http://www.w3.org/2000/svg" width="20" height="20" viewBox="0 0 20 20"><path d="M8.977 16a1.027 1.027 0 0 1-.677-.24C7.23 14.844 1.812 10.125.535 7.5a5.579 5.579 0 0 1-.21-4.279A4.668 4.668 0 0 1 2.745.549 5.755 5.755 0 0 1 5.136.032a5.382 5.382 0 0 1 3.842 1.537A5.378 5.378 0 0 1 12.84.012a5.755 5.755 0 0 1 2.393.518 4.663 4.663 0 0 1 2.418 2.67 5.568 5.568 0 0 1-.212 4.275c-1.32 2.721-7.105 7.7-7.761 8.263A1.034 1.034 0 0 1 9.1 16h-.123Zm.308-1.33h.006Zm-.591-.023-.028.024a.339.339 0 0 0 .028-.022ZM5.136 1.479a4.22 4.22 0 0 0-1.753.379A3.214 3.214 0 0 0 1.73 3.7a4.141 4.141 0 0 0 .156 3.18c.914 1.88 4.745 5.49 7.091 7.526 2.238-1.938 6.187-5.642 7.113-7.549a4.137 4.137 0 0 0 .156-3.173 3.211 3.211 0 0 0-1.652-1.847 4.232 4.232 0 0 0-1.754-.379A3.609 3.609 0 0 0 9.73 3l-.1.172a.75.75 0 0 1-.645.36.75.75 0 0 1-.644-.359l-.09-.149a3.6 3.6 0 0 0-3.115-1.545Z" style="fill:#1a1a1a;fill-rule:evenodd" transform="translate(1 2)"/></svg>