<svg xmlns="http://www.w3.org/2000/svg" width="20" height="20" viewBox="0 0 20 20"><path d="M690.49 2792a1.076 1.076 0 0 1-.679-.24c-1.008-.86-6.089-5.23-7.293-7.68a5.232 5.232 0 0 1-.2-4.05 4.429 4.429 0 0 1 2.312-2.52 5.485 5.485 0 0 1 2.268-.49 5.189 5.189 0 0 1 3.594 1.39 5.186 5.186 0 0 1 3.608-1.41 5.5 5.5 0 0 1 2.27.49 4.413 4.413 0 0 1 2.31 2.52 5.226 5.226 0 0 1-.2 4.05c-1.235 2.51-6.669 7.15-7.284 7.67a1 1 0 0 1-.594.26c-.024 0-.087.01-.112.01Zm-.311-1.44-.035.03Z" style="fill:#6b6b6b;fill-rule:evenodd" transform="translate(-680.515 -2774.5)"/></svg>