<svg xmlns="http://www.w3.org/2000/svg" id="_" width="20" height="20" viewBox="0 0 20 20" data-name="+"><defs><style>.cls-1{fill:#767676;fill-rule:evenodd}</style></defs><path id="Rounded_Rectangle_1003_copy_6" d="m1275 515 15.97.024a1.013 1.013 0 0 1 1 1 .984.984 0 0 1-.99.991l-15.97-.015a1.015 1.015 0 0 1-1-1 .984.984 0 0 1 .99-1Z" class="cls-1" data-name="Rounded Rectangle 1003 copy 6" transform="translate(-1272.985 -506)"/><path id="Rounded_Rectangle_1003_copy_7" d="m1282 524 .03-16a1 1 0 0 1 .98-1 .975.975 0 0 1 .98.988l-.02 16a1.011 1.011 0 0 1-.99 1 .981.981 0 0 1-.98-.988Z" class="cls-1" data-name="Rounded Rectangle 1003 copy 7" transform="translate(-1272.985 -506)"/></svg>