<?xml version="1.0" encoding="utf-8"?>
<!-- Generator: Adobe Illustrator 23.0.0, SVG Export Plug-In . SVG Version: 6.00 Build 0)  -->
<svg version="1.1" id="레이어_1" xmlns="http://www.w3.org/2000/svg" xmlns:xlink="http://www.w3.org/1999/xlink" x="0px"
	 y="0px" width="54px" height="54px" viewBox="0 0 54 54" style="enable-background:new 0 0 54 54;" xml:space="preserve">
<style type="text/css">
	.st0{fill-rule:evenodd;clip-rule:evenodd;fill:#FFFFFF;}
	.st1{fill-rule:evenodd;clip-rule:evenodd;fill:#333333;}
	.st2{fill-rule:evenodd;clip-rule:evenodd;fill:#6B6B6B;}
</style>
<image style="overflow:visible;" width="444" height="353" xlink:href="2F8E9F85.jpg"  transform="matrix(0.119 0 0 0.119 -63.2126 0)">
</image>
<path class="st0" d="M59-4h64v64H59V-4z"/>
<path class="st1" d="M119.4,34.6L99.1,54.9L90,57l2.1-9.2l20.3-20.3c0.8-0.8,2-0.8,2.8,0l4.2,4.2C120.2,32.6,120.2,33.8,119.4,34.6z
	 M92.3,54.3l-0.2,0.6l0.6-0.2L92.3,54.3z M95.6,47.2l4.2,4.2l-1.4,1.4l-4.2-4.2L93,52.2l1.8,1.8l3.6-1.2L112,39.2l-4.2-4.2
	L95.6,47.2z M117.3,32.5l-2.8-2.8c-0.4-0.4-1-0.4-1.4,0l-3.9,3.9l4.2,4.2l1.1-1.1l-4.2-4.2l1.4-1.4l4.2,4.2l1.4-1.4
	C117.7,33.5,117.7,32.9,117.3,32.5z M75,37c-0.6,0-1-0.4-1-1c0-0.6,0.4-1,1-1c0.6,0,1,0.4,1,1C76,36.6,75.6,37,75,37z M75,31
	c-0.6,0-1-0.4-1-1c0-0.6,0.4-1,1-1c0.6,0,1,0.4,1,1C76,30.6,75.6,31,75,31z M75,19c-0.6,0-1-0.4-1-1c0-0.6,0.4-1,1-1
	c0.6,0,1,0.4,1,1C76,18.6,75.6,19,75,19z M75,25c-0.6,0-1-0.4-1-1c0-0.6,0.4-1,1-1c0.6,0,1,0.4,1,1C76,24.6,75.6,25,75,25z M95,37
	H79c-0.6,0-1-0.4-1-1c0-0.6,0.4-1,1-1h16c0,0,1,0.1,1,1C96,36.9,95,37,95,37z M95,31H79c-0.6,0-1-0.4-1-1c0-0.6,0.4-1,1-1h16
	c0.6,0,1,0.4,1,1C96,30.6,95.6,31,95,31z M95,23c0,0,1,0.1,1,1c0,0.9-1,1-1,1H79c-0.6,0-1-0.4-1-1s0.4-1,1-1H95z M79,17h16
	c0.6,0,1,0.4,1,1c0,0.6-0.4,1-1,1H79c-0.6,0-1-0.4-1-1C78,17.4,78.4,17,79,17z M105,4H94.3L94,5c0,1.1-0.9,2-2,2H78
	c-1.1,0-2-0.9-2-2l-0.3-1H65v46h25l-1,2H65c-1.1,0-2-0.9-2-2V4c0-1.1,0.9-2,2-2h10c0-1.1,0.9-2,2-2h16c1.1,0,2,0.9,2,2h10
	c1.1,0,2,0.9,2,2c0,0,0,14.3,0,26l-2,2C105,20.4,105,4,105,4z M77,2l1,3h14l1-3H77z"/>
<g>
	<polygon class="st1" points="-9.2,23.3 -26.3,40.2 -34.7,41.2 -33.6,32.9 -16.6,15.9 	"/>
	<path class="st1" d="M-14.8,14.2l2.5-2.5c0.8-0.8,2.1-0.8,3,0l4.4,4.4c0.8,0.8,0.8,2.1,0,2.9l-2.5,2.5L-14.8,14.2z"/>
</g>
<path class="st2" d="M36.1,35.7V40c0,2.6-2.2,4.7-5,4.7H9.1c-2.7,0-5-2.1-5-4.7V16.5c0-2.6,2.2-4.7,5-4.7h22.1c1.6,0,3,0.7,3.9,1.8
	l2.8-2.5c-1.1-1.4-2.9-2.3-4.9-2.3H7.3c-3.4,0-6.2,2.6-6.2,5.9v27c0,3.3,2.8,5.9,6.2,5.9h25.5c3.4,0,6.2-2.6,6.2-5.9v-9.1L36.1,35.7
	z"/>
<path class="st2" d="M40.3,12.2l2.6-2.6c0.8-0.8,2.2-0.8,3.1,0l4.6,4.6c0.8,0.8,0.8,2.2,0,3.1l-2.7,2.6L40.3,12.2z"/>
<path class="st2" d="M38.5,14L20.7,31.6l-1.5,8.9l9.2-1.3l17.7-17.6L38.5,14z M27.3,36.6l-3.9-0.4l-0.1-3.9l1.9-1.9l4.3,4.2
	L27.3,36.6z"/>
<path class="st2" d="M32.9,64.5H7.3c-3.4,0-6.2,2.6-6.2,5.9v27c0,3.3,2.8,5.9,6.2,5.9h25.5c3.4,0,6.2-2.6,6.2-5.9v-27
	C39.1,67.2,36.3,64.5,32.9,64.5z M34.8,94.9c0,2.5-2.1,4.5-4.8,4.5H10c-2.6,0-4.8-2-4.8-4.5V72.9c0-2.5,2.1-4.5,4.8-4.5h20
	c2.6,0,4.8,2,4.8,4.5V94.9z"/>
<polygon class="st0" points="49.8,75.7 28.8,96.8 16.4,97.5 16.4,84.3 39.5,63.2 "/>
<path class="st2" d="M40.3,65.9l2.6-2.6c0.8-0.8,2.2-0.8,3.1,0l4.6,4.6c0.8,0.8,0.8,2.2,0,3.1l-2.7,2.6L40.3,65.9z"/>
<path class="st2" d="M38.5,67.7L20.7,85.3l-1.5,8.9l9.2-1.3l17.7-17.6L38.5,67.7z M27.3,90.3L23.4,90l-0.1-3.9l1.9-1.9l4.3,4.2
	L27.3,90.3z"/>
</svg>
